<svg id="svg" version="1.1" xmlns="http://www.w3.org/2000/svg" xmlns:xlink="http://www.w3.org/1999/xlink" width="400" height="400" viewBox="0, 0, 400,400"><g id="svgg"><path id="path0" d="M193.945 83.826 C 193.086 83.912,190.388 84.164,187.950 84.386 C 183.806 84.762,175.929 86.065,174.609 86.593 C 174.287 86.722,173.760 86.860,173.438 86.901 C 169.011 87.455,154.796 92.664,147.366 96.455 C 145.596 97.358,143.965 97.985,143.744 97.848 C 143.522 97.710,143.365 97.743,143.396 97.920 C 143.519 98.630,143.344 99.334,143.104 99.094 C 142.809 98.798,141.502 99.552,136.230 103.060 C 134.136 104.453,132.422 105.741,132.422 105.922 C 132.422 106.102,132.234 106.250,132.005 106.250 C 131.504 106.250,129.492 107.711,126.509 110.242 C 124.264 112.147,123.306 112.653,124.269 111.426 C 124.756 110.804,124.742 110.792,124.112 111.286 C 123.730 111.585,123.514 111.925,123.630 112.042 C 123.896 112.307,121.468 114.844,120.949 114.844 C 120.739 114.844,120.980 114.404,121.484 113.867 C 121.989 113.330,122.316 112.891,122.211 112.891 C 122.107 112.891,121.505 113.445,120.874 114.123 C 120.243 114.801,119.946 115.230,120.215 115.076 C 120.483 114.923,120.703 114.940,120.703 115.114 C 120.703 115.492,117.873 117.804,117.543 117.695 C 117.416 117.654,116.449 118.524,115.394 119.629 C 114.340 120.734,113.784 121.407,114.160 121.123 C 115.503 120.110,114.801 121.210,111.975 124.544 C 110.397 126.406,108.366 128.945,107.463 130.186 C 106.505 131.501,105.639 132.332,105.388 132.177 C 105.137 132.022,105.067 132.089,105.221 132.337 C 105.366 132.572,104.686 133.998,103.711 135.506 C 72.082 184.399,80.956 249.061,124.472 286.789 C 126.473 288.524,128.022 290.084,127.916 290.257 C 127.809 290.430,127.927 290.698,128.179 290.854 C 128.465 291.030,128.532 290.967,128.358 290.685 C 128.204 290.437,128.255 290.234,128.470 290.234 C 128.861 290.234,129.475 290.982,129.486 291.471 C 129.489 291.615,129.652 291.878,129.848 292.057 C 130.054 292.246,130.086 292.178,129.922 291.895 C 129.768 291.626,129.752 291.406,129.887 291.406 C 130.450 291.406,137.296 296.588,137.197 296.940 C 137.138 297.151,137.267 297.215,137.482 297.081 C 137.996 296.764,139.538 297.594,139.262 298.039 C 139.145 298.229,139.256 298.511,139.507 298.666 C 139.793 298.843,139.860 298.780,139.686 298.498 C 139.232 297.763,139.564 297.908,145.795 301.154 C 185.576 321.885,230.330 319.523,265.753 294.825 C 317.523 258.727,330.935 186.595,295.558 134.533 C 294.466 132.926,294.243 132.197,294.982 132.654 C 295.264 132.829,295.327 132.761,295.151 132.476 C 294.995 132.224,294.722 132.109,294.543 132.219 C 294.365 132.329,292.669 130.443,290.775 128.026 C 286.796 122.949,280.129 115.972,275.490 112.031 C 273.719 110.525,272.359 109.149,272.469 108.971 C 272.579 108.793,272.463 108.521,272.212 108.365 C 271.926 108.189,271.859 108.252,272.033 108.533 C 272.186 108.781,272.147 108.984,271.946 108.984 C 271.519 108.984,270.770 108.155,270.769 107.682 C 270.769 107.503,270.638 107.240,270.478 107.096 C 270.318 106.953,270.314 107.056,270.468 107.324 C 270.912 108.095,270.303 107.898,268.877 106.810 C 268.155 106.259,267.653 105.664,267.762 105.487 C 267.871 105.311,267.659 105.190,267.290 105.220 C 266.922 105.249,266.616 105.068,266.611 104.818 C 266.606 104.567,266.442 104.215,266.246 104.036 C 266.039 103.847,266.008 103.916,266.171 104.199 C 266.592 104.930,266.165 104.797,264.451 103.663 C 263.600 103.100,262.991 102.497,263.099 102.323 C 263.206 102.149,263.088 101.880,262.837 101.724 C 262.551 101.548,262.484 101.611,262.658 101.893 C 263.130 102.656,262.557 102.412,259.445 100.521 C 250.324 94.980,226.574 85.700,224.615 86.911 C 224.397 87.045,224.219 86.971,224.219 86.746 C 224.219 86.521,223.823 86.334,223.340 86.331 C 222.198 86.323,220.661 86.094,219.922 85.823 C 216.933 84.726,198.842 83.335,193.945 83.826 M282.617 117.969 C 283.893 119.258,285.024 120.313,285.132 120.313 C 285.239 120.313,284.283 119.258,283.008 117.969 C 281.732 116.680,280.601 115.625,280.493 115.625 C 280.386 115.625,281.342 116.680,282.617 117.969 M116.962 119.174 C 116.554 119.625,115.866 120.176,115.434 120.398 C 114.950 120.646,115.163 120.260,115.989 119.391 C 117.380 117.927,118.270 117.729,116.962 119.174 M207.357 120.710 C 216.982 121.724,232.813 126.571,232.813 128.504 C 232.813 129.706,226.794 137.299,226.154 136.903 C 225.998 136.806,225.630 137.033,225.337 137.407 C 224.855 138.021,224.870 138.035,225.488 137.550 C 225.864 137.255,226.172 137.171,226.172 137.364 C 226.172 137.901,220.113 143.802,219.804 143.567 C 219.654 143.453,219.624 143.481,219.738 143.631 C 219.973 143.941,215.246 148.828,214.710 148.828 C 214.516 148.828,214.599 148.521,214.894 148.145 C 215.379 147.526,215.365 147.512,214.750 147.993 C 214.377 148.286,214.158 148.667,214.264 148.839 C 214.371 149.011,213.094 150.396,211.428 151.918 C 208.630 154.473,207.362 155.343,208.045 154.237 C 208.219 153.955,208.152 153.892,207.866 154.068 C 207.615 154.224,207.502 154.501,207.616 154.685 C 207.730 154.869,206.048 156.571,203.879 158.467 C 199.794 162.037,198.310 163.041,200.000 161.089 L 200.977 159.961 199.931 160.881 C 199.281 161.453,198.974 162.034,199.119 162.414 C 199.295 162.871,199.184 162.961,198.680 162.768 C 198.310 162.625,198.103 162.665,198.221 162.856 C 198.339 163.047,197.226 164.275,195.747 165.586 C 193.113 167.921,191.953 168.643,193.019 167.285 C 193.504 166.667,193.490 166.652,192.875 167.134 C 192.502 167.427,192.281 167.803,192.384 167.970 C 192.487 168.137,191.422 169.392,190.017 170.758 C 187.494 173.211,186.302 174.074,186.920 173.000 C 187.091 172.703,186.676 172.977,185.998 173.608 C 184.748 174.772,184.278 175.501,185.352 174.609 C 186.142 173.954,186.098 174.566,185.291 175.458 C 184.613 176.207,183.764 176.454,184.180 175.781 C 184.701 174.938,184.063 175.485,182.018 177.637 L 179.883 179.882 182.024 177.930 C 183.201 176.855,183.734 176.504,183.207 177.148 C 181.658 179.043,176.803 183.984,176.490 183.984 C 175.662 183.984,175.213 180.194,174.406 166.406 C 173.346 148.290,171.816 138.643,168.717 130.534 C 167.258 126.715,167.245 126.747,170.641 125.445 C 181.963 121.104,195.061 119.415,207.357 120.710 M195.619 120.992 C 196.754 121.071,198.512 121.070,199.525 120.990 C 200.538 120.910,199.609 120.845,197.461 120.846 C 195.313 120.847,194.483 120.912,195.619 120.992 M160.649 133.496 C 162.915 138.638,164.940 148.314,165.615 157.227 C 167.783 185.849,168.245 189.909,170.297 198.309 C 170.918 200.850,172.036 204.637,172.782 206.724 C 173.947 209.983,174.059 210.584,173.574 210.986 C 173.119 211.364,173.108 211.517,173.517 211.776 C 173.919 212.031,173.909 212.099,173.468 212.103 C 172.745 212.111,169.374 210.477,160.742 205.934 C 143.398 196.806,132.582 192.185,125.391 190.833 C 124.639 190.692,123.561 190.399,122.996 190.182 L 121.968 189.788 122.909 185.421 C 124.735 176.938,127.201 169.858,130.714 163.006 C 134.199 156.209,140.974 146.562,141.873 147.118 C 142.124 147.272,142.199 147.210,142.051 146.971 C 141.377 145.880,149.868 137.656,157.013 132.480 C 159.287 130.833,159.501 130.893,160.649 133.496 M245.561 134.863 C 247.341 136.206,248.730 137.504,248.647 137.748 C 248.564 137.992,249.054 138.695,249.737 139.311 L 250.977 140.430 249.829 139.160 C 249.198 138.462,248.871 137.891,249.102 137.891 C 250.667 137.891,261.758 151.080,265.689 157.617 C 271.714 167.636,277.385 183.571,277.338 190.352 C 277.321 192.737,280.616 193.492,227.344 178.901 C 212.995 174.971,204.029 172.542,203.227 172.367 C 202.746 172.262,202.451 172.018,202.571 171.824 C 202.690 171.630,202.996 171.575,203.250 171.702 C 203.503 171.829,203.416 171.690,203.055 171.393 C 202.203 170.691,202.051 170.860,208.398 165.442 C 216.745 158.317,223.231 152.433,227.512 148.104 C 229.645 145.946,231.507 144.253,231.649 144.341 C 231.791 144.429,232.507 143.849,233.239 143.051 L 234.570 141.602 233.105 142.948 C 232.300 143.688,231.641 144.164,231.641 144.004 C 231.641 143.471,238.785 135.571,239.094 135.762 C 239.262 135.865,239.526 135.744,239.682 135.493 C 239.858 135.207,239.795 135.140,239.513 135.314 C 238.774 135.771,238.998 135.119,240.059 133.728 C 241.408 131.960,241.827 132.046,245.561 134.863 M253.906 143.482 C 253.906 143.549,254.478 144.120,255.176 144.751 L 256.445 145.898 255.298 144.629 C 254.229 143.446,253.906 143.180,253.906 143.482 M174.716 161.719 C 174.716 162.686,174.792 163.081,174.885 162.598 C 174.978 162.114,174.978 161.323,174.885 160.840 C 174.792 160.356,174.716 160.752,174.716 161.719 M231.055 187.730 C 232.344 188.068,236.387 189.209,240.039 190.265 C 243.691 191.321,247.646 192.451,248.828 192.775 C 250.010 193.100,253.789 194.145,257.227 195.097 C 260.664 196.050,266.472 197.598,270.134 198.537 C 277.997 200.553,277.734 200.422,277.734 202.331 C 277.734 224.013,264.699 249.170,246.315 262.967 C 240.378 267.423,241.124 269.327,235.349 234.961 C 231.641 212.889,229.712 204.093,226.164 193.074 C 225.125 189.848,224.700 187.924,224.855 187.149 L 225.085 186.000 226.898 186.558 C 227.895 186.865,229.766 187.392,231.055 187.730 M84.075 198.828 C 84.075 199.580,84.155 199.888,84.254 199.512 C 84.352 199.136,84.352 198.521,84.254 198.145 C 84.155 197.769,84.075 198.076,84.075 198.828 M126.714 199.242 C 134.397 201.445,142.477 205.068,156.475 212.588 C 173.665 221.824,181.477 224.991,194.238 227.895 C 195.661 228.219,195.595 228.614,193.848 230.228 C 190.930 232.923,187.786 235.102,188.514 233.924 C 188.688 233.642,188.621 233.579,188.335 233.756 C 188.084 233.911,187.972 234.191,188.087 234.377 C 188.279 234.687,173.007 246.875,172.426 246.875 C 172.285 246.875,172.411 246.567,172.706 246.191 C 173.191 245.573,173.178 245.558,172.563 246.040 C 172.189 246.333,171.974 246.720,172.085 246.899 C 172.196 247.078,170.392 248.793,168.077 250.710 C 164.230 253.895,155.859 262.516,155.859 263.293 C 155.859 264.412,154.116 264.018,152.063 262.435 C 143.179 255.585,136.623 247.744,130.137 236.215 C 125.547 228.054,121.693 214.274,121.217 204.321 C 120.874 197.152,120.531 197.470,126.714 199.242 M121.638 198.990 C 121.522 199.295,121.489 200.042,121.567 200.651 C 121.681 201.554,121.742 201.452,121.899 200.098 C 122.096 198.390,122.010 198.022,121.638 198.990 M315.716 206.250 C 315.716 207.002,315.796 207.310,315.894 206.934 C 315.993 206.558,315.993 205.942,315.894 205.566 C 315.796 205.190,315.716 205.498,315.716 206.250 M222.811 217.254 C 222.622 217.560,222.740 217.630,223.167 217.466 C 224.071 217.119,223.839 216.028,227.929 239.844 C 230.809 256.620,231.435 259.874,232.845 265.395 C 234.219 270.777,234.199 270.840,230.664 272.062 C 229.590 272.434,227.480 273.170,225.977 273.699 C 207.385 280.232,184.625 279.333,166.238 271.337 C 160.809 268.977,160.821 269.090,165.454 264.160 C 168.214 261.224,170.558 259.476,168.335 262.012 C 167.817 262.603,168.124 262.405,169.017 261.572 C 169.910 260.740,170.578 259.861,170.500 259.619 C 170.354 259.161,178.044 252.721,185.221 247.292 C 189.278 244.223,190.183 243.666,189.611 244.592 C 189.437 244.873,189.504 244.936,189.790 244.760 C 190.041 244.604,190.154 244.327,190.041 244.144 C 189.927 243.960,190.584 243.213,191.499 242.483 C 192.415 241.753,197.503 237.698,202.807 233.472 C 208.110 229.246,212.559 225.611,212.693 225.394 C 212.827 225.177,213.129 225.000,213.365 225.000 C 213.600 225.000,213.458 225.396,213.049 225.879 L 212.305 226.758 213.168 226.028 C 213.643 225.626,213.995 225.134,213.949 224.935 C 213.883 224.642,222.550 216.832,222.972 216.805 C 223.039 216.800,222.966 217.003,222.811 217.254 M251.541 257.715 L 250.195 259.180 251.660 257.834 C 253.024 256.581,253.305 256.250,253.006 256.250 C 252.941 256.250,252.282 256.909,251.541 257.715 M117.188 281.055 C 119.004 282.881,120.578 284.375,120.686 284.375 C 120.793 284.375,119.395 282.881,117.578 281.055 C 115.761 279.229,114.187 277.734,114.080 277.734 C 113.972 277.734,115.371 279.229,117.188 281.055 M281.435 282.520 L 278.711 285.352 281.543 282.628 C 284.173 280.098,284.553 279.688,284.267 279.688 C 284.207 279.688,282.933 280.962,281.435 282.520 M196.197 315.905 C 196.791 315.995,197.669 315.993,198.150 315.900 C 198.630 315.807,198.145 315.734,197.070 315.737 C 195.996 315.740,195.603 315.816,196.197 315.905 " stroke="none" fill="#f74c44" fill-rule="evenodd"></path><path id="path1" d="M195.996 83.492 C 197.339 83.569,199.536 83.569,200.879 83.492 C 202.222 83.416,201.123 83.354,198.438 83.354 C 195.752 83.354,194.653 83.416,195.996 83.492 M189.556 83.874 C 190.150 83.964,191.029 83.961,191.509 83.869 C 191.990 83.776,191.504 83.703,190.430 83.705 C 189.355 83.708,188.962 83.784,189.556 83.874 M205.769 83.877 C 206.471 83.964,207.525 83.962,208.112 83.873 C 208.699 83.784,208.125 83.713,206.836 83.715 C 205.547 83.717,205.067 83.790,205.769 83.877 M185.645 84.254 C 186.021 84.352,186.636 84.352,187.012 84.254 C 187.388 84.155,187.080 84.075,186.328 84.075 C 185.576 84.075,185.269 84.155,185.645 84.254 M210.063 84.261 C 210.549 84.354,211.252 84.351,211.626 84.253 C 211.999 84.155,211.602 84.079,210.742 84.083 C 209.883 84.087,209.577 84.167,210.063 84.261 M222.852 86.140 C 225.787 86.802,226.453 86.794,224.414 86.122 C 223.555 85.839,222.324 85.608,221.680 85.610 C 220.948 85.611,221.389 85.811,222.852 86.140 M228.516 87.514 C 229.912 87.921,231.230 88.242,231.445 88.227 C 232.127 88.181,227.574 86.766,226.758 86.770 C 226.328 86.773,227.119 87.107,228.516 87.514 M168.359 87.695 C 167.607 87.985,167.256 88.222,167.578 88.222 C 167.900 88.222,168.779 87.985,169.531 87.695 C 170.283 87.406,170.635 87.169,170.313 87.169 C 169.990 87.169,169.111 87.406,168.359 87.695 M165.039 88.672 C 164.547 88.883,164.474 89.008,164.844 89.008 C 165.166 89.008,165.781 88.857,166.211 88.672 C 166.703 88.460,166.776 88.336,166.406 88.336 C 166.084 88.336,165.469 88.487,165.039 88.672 M234.144 89.105 C 235.414 89.514,236.525 89.777,236.614 89.688 C 236.791 89.511,232.708 88.256,232.166 88.320 C 231.985 88.342,232.875 88.695,234.144 89.105 M159.251 90.679 C 157.572 91.337,156.265 91.942,156.347 92.025 C 156.497 92.174,162.527 89.947,162.851 89.623 C 163.249 89.225,162.113 89.558,159.251 90.679 M238.321 90.404 C 238.640 90.723,244.674 92.956,244.821 92.810 C 244.901 92.729,243.535 92.117,241.786 91.449 C 238.702 90.271,237.966 90.050,238.321 90.404 M152.930 93.345 C 151.641 93.961,150.762 94.466,150.977 94.468 C 151.497 94.473,156.166 92.250,155.664 92.237 C 155.449 92.231,154.219 92.730,152.930 93.345 M246.484 93.750 C 247.236 94.162,248.027 94.499,248.242 94.499 C 248.457 94.499,248.018 94.162,247.266 93.750 C 246.514 93.338,245.723 93.001,245.508 93.001 C 245.293 93.001,245.732 93.338,246.484 93.750 M250.423 95.461 C 250.822 95.824,254.688 97.649,254.688 97.474 C 254.688 97.254,250.957 95.313,250.534 95.313 C 250.383 95.313,250.334 95.379,250.423 95.461 M140.425 99.816 C 138.067 101.219,135.873 102.646,135.549 102.987 C 135.226 103.328,135.664 103.153,136.523 102.598 C 137.383 102.043,139.624 100.691,141.504 99.593 C 144.428 97.886,145.311 97.266,144.817 97.266 C 144.760 97.266,142.784 98.413,140.425 99.816 M255.859 98.201 C 255.859 98.294,256.958 98.996,258.301 99.760 C 259.644 100.525,261.313 101.524,262.012 101.981 C 262.710 102.437,263.281 102.731,263.281 102.633 C 263.281 102.535,262.349 101.836,261.210 101.079 C 258.993 99.607,255.859 97.921,255.859 98.201 M263.672 102.836 C 263.779 102.951,265.977 104.574,268.555 106.444 C 271.133 108.315,273.763 110.310,274.399 110.879 C 275.035 111.448,275.299 111.575,274.985 111.161 C 274.373 110.354,265.766 103.819,264.337 103.076 C 263.864 102.830,263.564 102.722,263.672 102.836 M131.061 106.089 C 126.524 109.387,121.357 113.905,117.188 118.219 C 114.520 120.980,114.789 120.772,118.555 117.163 C 123.445 112.477,127.152 109.355,131.934 105.894 C 134.353 104.142,135.121 103.477,134.668 103.526 C 134.614 103.532,132.991 104.685,131.061 106.089 M276.172 112.232 C 276.172 112.299,276.743 112.870,277.441 113.501 L 278.711 114.648 277.564 113.379 C 276.494 112.196,276.172 111.930,276.172 112.232 M282.059 117.776 C 286.612 122.641,289.280 125.774,292.370 129.883 C 295.052 133.450,296.107 134.703,295.494 133.594 C 293.935 130.771,287.258 122.785,282.268 117.773 L 278.767 114.258 282.059 117.776 M195.410 120.597 C 196.216 120.681,197.534 120.681,198.340 120.597 C 199.146 120.513,198.486 120.444,196.875 120.444 C 195.264 120.444,194.604 120.513,195.410 120.597 M190.527 120.979 C 191.011 121.072,191.802 121.072,192.285 120.979 C 192.769 120.886,192.373 120.810,191.406 120.810 C 190.439 120.810,190.044 120.886,190.527 120.979 M204.785 120.983 C 205.376 121.072,206.343 121.072,206.934 120.983 C 207.524 120.893,207.041 120.820,205.859 120.820 C 204.678 120.820,204.194 120.893,204.785 120.983 M212.271 121.907 C 214.617 122.320,216.603 122.589,216.687 122.506 C 216.900 122.293,210.169 121.085,208.984 121.125 C 208.447 121.142,209.926 121.494,212.271 121.907 M112.455 123.340 C 111.273 124.598,109.454 126.803,107.461 129.395 C 107.172 129.771,107.035 130.078,107.156 130.078 C 107.277 130.078,108.218 128.979,109.247 127.637 C 110.277 126.294,111.803 124.448,112.640 123.535 C 113.477 122.622,114.087 121.875,113.996 121.875 C 113.905 121.875,113.211 122.534,112.455 123.340 M177.930 123.257 C 176.389 123.790,176.386 123.794,177.734 123.567 C 179.328 123.298,180.957 122.703,180.078 122.711 C 179.756 122.714,178.789 122.960,177.930 123.257 M223.668 124.778 C 226.480 125.713,229.353 126.773,230.052 127.135 C 230.751 127.496,231.403 127.711,231.502 127.613 C 231.754 127.360,226.596 125.272,222.734 124.062 C 217.437 122.404,218.136 122.939,223.668 124.778 M173.954 124.346 C 171.904 125.103,171.991 125.436,174.058 124.746 C 175.113 124.394,176.050 124.043,176.139 123.967 C 176.482 123.675,175.141 123.908,173.954 124.346 M169.727 125.968 C 168.652 126.474,167.891 126.903,168.034 126.921 C 168.443 126.972,171.875 125.443,171.875 125.209 C 171.875 124.941,172.000 124.897,169.727 125.968 M105.198 132.520 C 103.245 135.127,99.358 141.545,97.510 145.215 C 95.317 149.571,96.140 148.570,98.636 143.848 C 99.856 141.538,102.230 137.583,103.912 135.059 C 107.210 130.108,107.637 129.264,105.198 132.520 M229.342 133.105 C 228.210 134.563,227.933 135.043,228.722 134.180 C 230.233 132.526,231.797 130.469,231.542 130.469 C 231.459 130.469,230.469 131.655,229.342 133.105 M169.239 131.348 C 169.339 131.616,169.795 133.154,170.253 134.766 C 170.710 136.377,171.260 138.311,171.475 139.063 L 171.866 140.430 171.654 138.867 C 171.392 136.944,169.590 130.859,169.282 130.859 C 169.158 130.859,169.139 131.079,169.239 131.348 M156.501 133.026 C 155.504 133.788,154.688 134.503,154.688 134.615 C 154.688 134.817,155.923 133.957,157.813 132.442 C 159.505 131.083,158.401 131.576,156.501 133.026 M240.266 133.534 C 240.034 133.967,238.587 135.872,237.051 137.766 C 235.514 139.661,234.743 140.771,235.338 140.234 C 236.781 138.932,241.146 133.203,240.890 132.947 C 240.779 132.836,240.498 133.100,240.266 133.534 M244.881 134.930 C 248.085 137.327,253.222 142.148,257.193 146.484 C 259.016 148.475,259.326 148.730,258.161 147.279 C 254.321 142.501,243.724 132.813,242.337 132.813 C 242.179 132.813,243.324 133.765,244.881 134.930 M296.459 135.645 C 296.916 136.343,297.996 138.101,298.858 139.551 C 299.720 141.001,300.522 142.188,300.640 142.188 C 300.759 142.188,300.368 141.353,299.771 140.332 C 297.937 137.194,296.081 134.375,295.848 134.375 C 295.726 134.375,296.001 134.946,296.459 135.645 M161.173 135.938 C 161.323 136.475,161.933 138.672,162.528 140.820 C 163.124 142.969,163.625 144.487,163.642 144.193 C 163.684 143.442,161.710 136.255,161.267 135.547 C 161.011 135.139,160.983 135.257,161.173 135.938 M146.671 141.504 L 143.555 144.727 146.777 141.611 C 149.770 138.717,150.178 138.281,149.893 138.281 C 149.834 138.281,148.384 139.731,146.671 141.504 M223.608 139.941 L 222.461 141.211 223.730 140.064 C 224.429 139.433,225.000 138.861,225.000 138.794 C 225.000 138.492,224.678 138.758,223.608 139.941 M218.945 144.428 C 217.227 146.070,216.523 146.868,217.383 146.200 C 218.910 145.014,222.604 141.388,222.249 141.425 C 222.151 141.435,220.664 142.786,218.945 144.428 M231.046 144.629 L 227.930 147.852 231.152 144.736 C 232.925 143.022,234.375 141.572,234.375 141.513 C 234.375 141.228,233.939 141.636,231.046 144.629 M303.446 147.802 C 304.881 150.682,306.121 152.977,306.202 152.902 C 306.389 152.728,301.532 142.996,301.135 142.751 C 300.972 142.650,302.012 144.923,303.446 147.802 M172.656 145.485 C 172.656 146.009,172.800 146.527,172.976 146.636 C 173.152 146.745,173.220 146.316,173.127 145.682 C 172.922 144.286,172.656 144.175,172.656 145.485 M163.741 145.508 C 163.728 145.938,163.862 146.992,164.040 147.852 C 164.312 149.165,164.363 149.227,164.362 148.242 C 164.360 146.874,163.777 144.307,163.741 145.508 M173.130 148.242 C 173.122 148.887,173.252 150.293,173.420 151.367 C 173.668 152.964,173.728 153.071,173.747 151.953 C 173.760 151.201,173.629 149.795,173.457 148.828 C 173.230 147.550,173.141 147.390,173.130 148.242 M139.883 149.039 C 136.411 152.992,130.961 162.194,128.161 168.828 C 125.977 174.004,123.104 183.391,123.564 183.851 C 123.658 183.945,124.048 182.739,124.430 181.171 C 127.074 170.325,132.662 158.841,139.550 150.098 C 141.638 147.448,141.837 146.813,139.883 149.039 M212.500 150.460 C 210.022 152.802,209.932 152.927,211.914 151.268 C 214.111 149.429,215.945 147.635,215.588 147.673 C 215.501 147.683,214.111 148.936,212.500 150.460 M222.740 152.832 C 219.996 155.464,214.679 160.238,210.926 163.441 C 202.652 170.502,203.306 169.922,203.616 169.922 C 203.896 169.922,209.941 164.862,215.234 160.198 C 219.725 156.241,228.333 148.047,227.999 148.047 C 227.851 148.047,225.485 150.200,222.740 152.832 M94.797 150.604 C 93.879 152.528,94.008 152.856,94.967 151.037 C 95.403 150.211,95.691 149.467,95.606 149.382 C 95.522 149.298,95.157 149.848,94.797 150.604 M164.544 150.781 C 164.544 151.533,164.624 151.841,164.722 151.465 C 164.821 151.089,164.821 150.474,164.722 150.098 C 164.624 149.722,164.544 150.029,164.544 150.781 M263.019 154.431 C 267.315 160.930,267.385 161.028,266.167 158.789 C 264.854 156.375,260.698 150.140,260.196 149.830 C 259.994 149.704,261.264 151.775,263.019 154.431 M164.950 153.906 C 164.950 154.873,165.026 155.269,165.119 154.785 C 165.213 154.302,165.213 153.511,165.119 153.027 C 165.026 152.544,164.950 152.939,164.950 153.906 M93.423 153.728 C 92.768 155.164,92.893 155.471,93.601 154.165 C 93.931 153.555,94.129 152.983,94.039 152.894 C 93.950 152.804,93.673 153.180,93.423 153.728 M207.791 154.590 L 206.445 156.055 207.910 154.709 C 209.274 153.456,209.555 153.125,209.256 153.125 C 209.191 153.125,208.532 153.784,207.791 154.590 M174.115 158.398 C 174.227 161.191,174.384 163.550,174.464 163.639 C 174.708 163.913,174.537 158.556,174.215 155.859 C 174.014 154.180,173.981 155.039,174.115 158.398 M306.266 153.560 C 306.257 153.691,306.749 155.009,307.358 156.489 C 307.968 157.969,308.865 160.377,309.352 161.841 C 309.838 163.305,310.312 164.428,310.404 164.335 C 310.615 164.124,307.729 155.993,306.898 154.460 C 306.559 153.833,306.274 153.428,306.266 153.560 M91.499 158.782 C 90.803 160.621,90.240 162.342,90.247 162.606 C 90.254 162.870,90.866 161.504,91.606 159.570 C 92.346 157.637,92.909 155.916,92.858 155.746 C 92.806 155.577,92.194 156.943,91.499 158.782 M203.320 158.451 L 200.586 161.022 203.418 158.596 C 205.888 156.479,206.542 155.828,206.152 155.870 C 206.099 155.876,204.824 157.037,203.320 158.451 M165.359 158.594 C 165.359 159.990,165.430 160.562,165.517 159.863 C 165.604 159.165,165.604 158.022,165.517 157.324 C 165.430 156.626,165.359 157.197,165.359 158.594 M197.070 163.912 L 193.945 166.875 196.723 164.500 C 199.299 162.298,200.690 160.930,200.341 160.943 C 200.261 160.946,198.789 162.282,197.070 163.912 M267.904 162.402 C 268.277 163.208,268.899 164.460,269.286 165.184 C 270.309 167.095,273.172 174.404,274.012 177.249 C 274.410 178.593,274.815 179.612,274.913 179.514 C 275.502 178.925,268.255 160.938,267.430 160.938 C 267.318 160.938,267.531 161.597,267.904 162.402 M165.746 164.258 C 165.748 165.547,165.821 166.027,165.908 165.325 C 165.995 164.623,165.993 163.568,165.904 162.981 C 165.815 162.394,165.744 162.969,165.746 164.258 M89.498 164.491 C 89.259 165.179,89.074 166.023,89.089 166.367 C 89.103 166.711,89.359 166.208,89.658 165.250 C 90.283 163.244,90.151 162.619,89.498 164.491 M174.743 167.383 C 174.745 169.102,174.813 169.756,174.896 168.837 C 174.978 167.919,174.977 166.512,174.893 165.712 C 174.809 164.912,174.742 165.664,174.743 167.383 M311.167 167.384 C 311.922 170.400,312.433 172.019,312.460 171.484 C 312.500 170.726,311.454 166.792,311.126 166.464 C 310.987 166.326,311.006 166.740,311.167 167.384 M166.147 169.531 C 166.147 171.143,166.216 171.802,166.300 170.996 C 166.384 170.190,166.384 168.872,166.300 168.066 C 166.216 167.261,166.147 167.920,166.147 169.531 M191.393 169.043 L 189.258 171.289 191.504 169.154 C 192.739 167.980,193.750 166.969,193.750 166.908 C 193.750 166.618,193.376 166.956,191.393 169.043 M175.110 172.656 C 175.103 173.838,175.223 176.035,175.378 177.539 C 175.651 180.204,175.659 180.219,175.671 178.125 C 175.678 176.943,175.558 174.746,175.404 173.242 C 175.130 170.577,175.123 170.563,175.110 172.656 M183.978 176.066 L 179.492 180.647 183.776 176.554 C 186.132 174.303,188.298 172.241,188.589 171.973 C 188.880 171.704,188.971 171.484,188.791 171.484 C 188.611 171.484,186.445 173.546,183.978 176.066 M204.972 172.665 C 206.219 173.167,226.436 178.538,226.901 178.491 C 227.508 178.430,225.086 177.704,218.555 175.989 C 214.688 174.973,210.037 173.720,208.220 173.204 C 204.924 172.268,203.324 172.002,204.972 172.665 M312.542 172.656 C 312.527 172.979,312.760 174.121,313.059 175.195 C 313.357 176.270,313.614 176.885,313.629 176.563 C 313.644 176.240,313.412 175.098,313.113 174.023 C 312.814 172.949,312.558 172.334,312.542 172.656 M166.523 174.609 C 166.523 175.791,166.597 176.274,166.686 175.684 C 166.776 175.093,166.776 174.126,166.686 173.535 C 166.597 172.944,166.523 173.428,166.523 174.609 M86.549 176.538 C 85.627 181.556,84.774 188.206,84.818 190.039 C 84.839 190.898,85.098 189.496,85.393 186.923 C 85.688 184.349,86.289 180.239,86.728 177.788 C 87.166 175.338,87.452 173.259,87.362 173.169 C 87.272 173.079,86.906 174.595,86.549 176.538 M313.763 178.516 C 313.763 179.268,313.843 179.575,313.941 179.199 C 314.039 178.823,314.039 178.208,313.941 177.832 C 313.843 177.456,313.763 177.764,313.763 178.516 M166.895 179.102 C 166.900 179.961,166.980 180.267,167.073 179.781 C 167.167 179.295,167.163 178.592,167.065 178.218 C 166.967 177.845,166.891 178.242,166.895 179.102 M227.376 178.671 C 227.682 178.963,236.793 181.306,236.963 181.136 C 237.057 181.042,235.049 180.415,232.503 179.741 C 228.002 178.550,227.039 178.349,227.376 178.671 M275.042 180.469 C 275.027 180.791,275.260 181.934,275.559 183.008 C 275.857 184.082,276.114 184.697,276.129 184.375 C 276.144 184.053,275.912 182.910,275.613 181.836 C 275.314 180.762,275.058 180.146,275.042 180.469 M314.333 182.227 C 314.453 183.516,314.617 184.644,314.697 184.733 C 314.959 185.024,314.760 182.260,314.433 181.055 C 314.224 180.284,314.190 180.685,314.333 182.227 M175.781 181.422 C 175.781 181.947,175.925 182.465,176.101 182.574 C 176.277 182.682,176.345 182.253,176.252 181.620 C 176.047 180.224,175.781 180.112,175.781 181.422 M178.906 181.360 C 178.584 181.622,178.063 182.188,177.749 182.617 C 177.435 183.047,177.743 182.882,178.433 182.251 C 179.558 181.222,179.883 180.834,179.590 180.872 C 179.536 180.879,179.229 181.098,178.906 181.360 M237.500 181.357 C 237.500 181.630,243.780 183.303,243.996 183.088 C 244.091 182.993,243.064 182.630,241.713 182.282 C 240.363 181.934,238.862 181.539,238.379 181.404 C 237.896 181.269,237.500 181.248,237.500 181.357 M167.294 183.594 C 167.294 184.561,167.370 184.956,167.463 184.473 C 167.556 183.989,167.556 183.198,167.463 182.715 C 167.370 182.231,167.294 182.627,167.294 183.594 M245.117 183.541 C 245.547 183.729,246.514 183.995,247.266 184.131 C 248.204 184.301,248.388 184.272,247.852 184.037 C 247.422 183.849,246.455 183.584,245.703 183.447 C 244.765 183.277,244.581 183.306,245.117 183.541 M250.977 185.128 C 252.266 185.537,256.748 186.781,260.938 187.893 C 265.127 189.004,270.036 190.336,271.846 190.852 C 273.656 191.368,275.207 191.720,275.293 191.634 C 275.488 191.439,273.664 190.909,260.883 187.453 C 250.609 184.675,246.538 183.719,250.977 185.128 M122.759 186.746 C 122.543 187.835,122.502 188.582,122.667 188.406 C 123.006 188.043,123.602 184.766,123.328 184.766 C 123.230 184.766,122.974 185.657,122.759 186.746 M276.442 187.305 C 276.562 188.594,276.726 189.722,276.807 189.811 C 277.068 190.102,276.870 187.338,276.543 186.133 C 276.333 185.362,276.299 185.764,276.442 187.305 M315.118 189.063 C 315.635 199.899,315.961 203.587,315.752 196.234 C 315.641 192.337,315.409 188.206,315.236 187.055 C 315.016 185.585,314.981 186.183,315.118 189.063 M167.643 186.719 C 167.627 187.471,167.849 189.229,168.136 190.625 C 168.810 193.910,168.840 192.511,168.181 188.477 C 167.889 186.687,167.659 185.936,167.643 186.719 M226.186 186.892 C 226.946 187.172,228.176 187.509,228.920 187.642 C 230.003 187.835,229.884 187.734,228.320 187.136 C 227.246 186.725,226.016 186.387,225.586 186.386 C 225.116 186.384,225.354 186.586,226.186 186.892 M224.811 188.477 C 224.954 188.906,225.347 190.095,225.683 191.118 C 226.018 192.141,226.367 192.904,226.456 192.815 C 226.657 192.614,225.502 189.155,224.952 188.312 C 224.625 187.810,224.599 187.841,224.811 188.477 M230.501 188.051 C 230.816 188.362,240.734 191.044,241.108 190.920 C 241.316 190.850,239.133 190.140,236.257 189.342 C 231.224 187.945,230.150 187.705,230.501 188.051 M123.219 190.044 C 123.636 190.364,124.427 190.611,124.977 190.594 C 125.975 190.563,125.844 190.488,123.633 189.818 C 122.545 189.489,122.515 189.505,123.219 190.044 M126.204 190.765 C 126.294 190.843,126.895 191.024,127.539 191.168 C 128.395 191.359,128.553 191.323,128.125 191.033 C 127.598 190.677,125.812 190.427,126.204 190.765 M241.797 191.183 C 241.797 191.405,245.871 192.584,246.544 192.557 C 246.834 192.546,246.016 192.197,244.727 191.782 C 242.301 191.001,241.797 190.898,241.797 191.183 M130.078 191.992 C 130.830 192.282,131.709 192.519,132.031 192.519 C 132.354 192.519,132.002 192.282,131.250 191.992 C 130.498 191.703,129.619 191.466,129.297 191.466 C 128.975 191.466,129.326 191.703,130.078 191.992 M248.438 193.164 C 249.189 193.454,250.156 193.692,250.586 193.694 C 251.016 193.696,250.576 193.448,249.609 193.144 C 247.402 192.448,246.614 192.462,248.438 193.164 M84.536 199.609 C 84.536 203.369,84.594 204.907,84.666 203.027 C 84.737 201.147,84.737 198.071,84.666 196.191 C 84.594 194.312,84.536 195.850,84.536 199.609 M134.375 193.324 C 134.697 193.506,135.400 193.772,135.938 193.914 L 136.914 194.173 135.938 193.585 C 135.400 193.261,134.697 192.996,134.375 192.994 C 133.854 192.993,133.854 193.029,134.375 193.324 M226.622 193.750 C 226.622 194.072,226.859 194.951,227.148 195.703 C 227.438 196.455,227.675 196.807,227.675 196.484 C 227.675 196.162,227.438 195.283,227.148 194.531 C 226.859 193.779,226.622 193.428,226.622 193.750 M252.317 194.143 C 253.708 194.751,262.149 196.965,262.342 196.773 C 262.432 196.682,260.352 196.030,257.718 195.324 C 251.957 193.778,251.008 193.571,252.317 194.143 M138.631 194.958 C 139.576 195.377,140.418 195.650,140.503 195.565 C 140.672 195.396,137.662 194.123,137.199 194.168 C 137.042 194.183,137.687 194.539,138.631 194.958 M169.181 195.719 C 169.138 196.360,171.781 205.896,172.086 206.200 C 172.410 206.524,172.280 205.926,171.142 201.864 C 169.383 195.578,169.223 195.078,169.181 195.719 M146.447 198.450 C 149.542 199.952,152.134 201.121,152.208 201.047 C 152.378 200.877,141.695 195.700,141.194 195.711 C 140.988 195.715,143.352 196.948,146.447 198.450 M264.063 197.363 C 264.367 197.686,271.937 199.678,272.129 199.485 C 272.224 199.391,270.931 198.950,269.256 198.505 C 265.068 197.392,263.834 197.120,264.063 197.363 M228.167 198.633 C 228.145 198.848,228.465 200.166,228.878 201.563 C 229.290 202.959,229.630 203.750,229.634 203.320 C 229.640 202.482,228.231 197.980,228.167 198.633 M125.000 199.169 C 125.322 199.362,126.201 199.629,126.953 199.762 C 127.875 199.925,128.066 199.895,127.539 199.669 C 126.331 199.152,124.306 198.753,125.000 199.169 M121.331 203.711 C 121.516 208.202,122.260 213.726,123.015 216.211 C 123.591 218.110,123.486 216.682,122.822 213.600 C 122.484 212.028,121.966 208.105,121.672 204.883 L 121.137 199.023 121.331 203.711 M273.438 200.000 C 273.760 200.208,274.463 200.364,275.000 200.346 L 275.977 200.313 275.000 200.000 C 273.494 199.518,272.691 199.518,273.438 200.000 M130.859 200.914 C 130.859 201.015,131.606 201.360,132.520 201.679 C 133.433 201.998,135.638 202.890,137.421 203.662 C 139.204 204.433,140.571 204.915,140.458 204.733 C 140.101 204.156,130.859 200.478,130.859 200.914 M152.734 201.354 C 152.734 201.461,153.613 201.995,154.688 202.539 C 155.762 203.083,156.641 203.441,156.641 203.333 C 156.641 203.226,155.762 202.693,154.688 202.148 C 153.613 201.604,152.734 201.247,152.734 201.354 M277.058 204.297 L 277.068 207.617 277.329 205.078 C 277.474 203.682,277.469 202.188,277.320 201.758 C 277.171 201.328,277.053 202.471,277.058 204.297 M157.031 203.695 C 157.031 203.802,157.734 204.249,158.594 204.688 C 159.453 205.126,160.156 205.397,160.156 205.289 C 160.156 205.182,159.453 204.735,158.594 204.297 C 157.734 203.858,157.031 203.588,157.031 203.695 M315.368 206.836 C 315.370 208.555,315.438 209.209,315.521 208.290 C 315.603 207.372,315.602 205.965,315.518 205.165 C 315.434 204.365,315.367 205.117,315.368 206.836 M141.439 205.224 C 141.841 205.583,144.141 206.640,144.141 206.465 C 144.141 206.240,141.975 205.078,141.556 205.078 C 141.402 205.078,141.349 205.144,141.439 205.224 M144.746 206.957 C 145.252 207.388,147.266 208.229,147.266 208.009 C 147.266 207.794,145.077 206.641,144.668 206.641 C 144.507 206.641,144.542 206.783,144.746 206.957 M162.891 206.830 C 162.891 206.937,165.000 208.083,167.578 209.375 C 170.156 210.667,172.266 211.637,172.266 211.529 C 172.266 211.422,170.156 210.277,167.578 208.984 C 165.000 207.692,162.891 206.722,162.891 206.830 M172.490 207.422 C 172.633 207.959,172.914 208.662,173.113 208.984 C 173.364 209.392,173.395 209.272,173.214 208.594 C 173.070 208.057,172.789 207.354,172.590 207.031 C 172.339 206.624,172.308 206.743,172.490 207.422 M84.804 209.212 C 84.826 210.269,84.986 212.100,85.162 213.281 C 85.392 214.834,85.423 214.347,85.272 211.523 C 85.054 207.448,84.737 205.883,84.804 209.212 M276.653 208.984 C 276.653 209.736,276.734 210.044,276.832 209.668 C 276.930 209.292,276.930 208.677,276.832 208.301 C 276.734 207.925,276.653 208.232,276.653 208.984 M147.656 208.359 C 147.656 208.568,152.229 210.939,152.621 210.933 C 152.791 210.931,151.828 210.315,150.482 209.566 C 148.077 208.227,147.656 208.048,147.656 208.359 M230.859 209.546 C 230.859 209.927,231.108 211.231,231.411 212.444 C 231.714 213.656,232.277 216.406,232.661 218.555 C 233.045 220.703,233.422 222.170,233.498 221.814 C 233.634 221.182,231.341 209.340,231.021 209.017 C 230.932 208.927,230.859 209.166,230.859 209.546 M314.533 214.208 C 314.255 216.544,314.097 218.524,314.183 218.610 C 314.437 218.864,315.329 211.995,315.178 210.938 C 315.102 210.400,314.811 211.872,314.533 214.208 M276.263 211.719 C 276.263 212.471,276.343 212.778,276.441 212.402 C 276.539 212.026,276.539 211.411,276.441 211.035 C 276.343 210.659,276.263 210.967,276.263 211.719 M157.227 213.499 C 159.630 215.390,181.365 225.406,181.901 224.870 C 181.996 224.775,181.293 224.431,180.339 224.106 C 177.365 223.093,170.398 219.917,163.281 216.330 C 159.521 214.435,156.797 213.161,157.227 213.499 M275.625 214.883 C 275.482 215.778,275.441 216.587,275.534 216.680 C 275.627 216.773,275.826 216.123,275.977 215.234 C 276.127 214.346,276.168 213.537,276.067 213.437 C 275.967 213.337,275.768 213.988,275.625 214.883 M85.774 217.383 C 86.050 220.054,87.182 225.839,87.388 225.633 C 87.546 225.475,86.796 221.061,85.954 217.188 L 85.572 215.430 85.774 217.383 M123.465 217.969 C 123.431 219.205,127.232 230.320,127.573 229.980 C 127.651 229.901,127.342 228.880,126.886 227.711 C 126.430 226.542,125.477 223.740,124.769 221.484 C 124.061 219.229,123.474 217.646,123.465 217.969 M220.686 218.858 C 218.702 220.663,215.198 223.631,211.592 226.563 C 202.025 234.340,198.401 237.235,192.480 241.834 C 188.882 244.630,185.938 247.017,185.938 247.139 C 185.938 247.261,186.157 247.194,186.426 246.988 C 198.476 237.787,221.853 218.784,222.201 217.907 C 222.416 217.364,222.137 217.539,220.686 218.858 M223.851 219.368 C 223.886 220.466,225.295 227.252,225.345 226.563 C 225.400 225.820,224.216 219.007,223.994 218.785 C 223.903 218.694,223.839 218.957,223.851 219.368 M313.330 221.729 C 313.068 223.150,312.929 224.387,313.020 224.478 C 313.111 224.570,313.405 223.486,313.672 222.070 C 313.939 220.655,314.079 219.417,313.982 219.320 C 313.885 219.224,313.592 220.307,313.330 221.729 M273.899 221.946 C 273.667 222.860,273.545 223.675,273.627 223.757 C 273.709 223.840,273.976 223.168,274.219 222.266 C 274.462 221.363,274.584 220.548,274.491 220.454 C 274.397 220.361,274.131 221.032,273.899 221.946 M272.734 225.664 C 272.491 226.459,272.356 227.173,272.435 227.252 C 272.514 227.331,272.789 226.757,273.047 225.977 C 273.305 225.196,273.439 224.481,273.347 224.388 C 273.254 224.295,272.978 224.870,272.734 225.664 M182.422 225.117 C 182.422 225.602,191.299 227.972,191.682 227.589 C 191.817 227.454,191.654 227.344,191.320 227.344 C 190.986 227.344,189.155 226.884,187.251 226.323 C 185.347 225.761,183.481 225.213,183.105 225.105 C 182.729 224.997,182.422 225.003,182.422 225.117 M311.761 228.601 C 310.996 231.586,309.373 236.892,308.022 240.820 C 307.774 241.542,307.788 241.548,308.207 240.893 C 309.217 239.315,313.096 226.203,312.808 225.339 C 312.742 225.141,312.271 226.609,311.761 228.601 M87.535 226.482 C 87.483 227.239,88.791 232.263,88.927 231.824 C 88.991 231.616,88.712 230.215,88.307 228.711 C 87.902 227.207,87.555 226.204,87.535 226.482 M225.483 228.125 C 225.483 228.662,225.617 229.629,225.781 230.273 C 226.047 231.319,226.079 231.340,226.079 230.469 C 226.079 229.932,225.945 228.965,225.781 228.320 C 225.515 227.275,225.483 227.254,225.483 228.125 M234.442 228.125 C 234.430 228.662,234.565 229.805,234.743 230.664 C 234.951 231.666,235.074 231.876,235.089 231.250 C 235.101 230.713,234.966 229.570,234.788 228.711 C 234.581 227.709,234.457 227.499,234.442 228.125 M193.164 230.316 C 192.520 230.861,191.036 232.027,189.867 232.908 C 187.539 234.662,186.724 235.327,184.961 236.909 C 184.316 237.487,184.911 237.110,186.282 236.070 C 187.654 235.030,189.587 233.575,190.579 232.837 C 192.467 231.431,194.867 229.292,194.531 229.313 C 194.424 229.319,193.809 229.771,193.164 230.316 M269.161 234.254 C 267.991 236.720,266.020 240.305,264.781 242.220 C 263.542 244.136,262.614 245.703,262.718 245.703 C 263.503 245.703,271.964 230.407,271.448 229.921 C 271.361 229.838,270.332 231.788,269.161 234.254 M127.763 230.681 C 127.673 231.961,133.713 242.528,137.173 247.143 C 141.581 253.023,152.946 264.063,154.590 264.063 C 154.900 264.063,154.974 264.126,150.288 260.373 C 142.097 253.812,133.528 242.728,128.932 232.748 C 128.305 231.387,127.779 230.457,127.763 230.681 M226.377 233.594 C 226.785 236.999,229.059 249.736,229.190 249.345 C 229.262 249.127,228.693 245.274,227.925 240.783 C 226.577 232.902,225.939 229.940,226.377 233.594 M89.063 232.580 C 89.063 233.185,91.521 240.250,91.677 240.094 C 91.767 240.003,91.287 238.284,90.609 236.273 C 89.449 232.830,89.063 231.907,89.063 232.580 M235.424 234.172 C 235.555 235.242,235.806 236.560,235.981 237.102 C 236.181 237.720,236.211 237.363,236.061 236.140 C 235.929 235.070,235.678 233.752,235.503 233.211 C 235.303 232.592,235.273 232.949,235.424 234.172 M180.078 240.461 C 177.562 242.451,177.224 242.923,179.412 241.389 C 181.092 240.212,182.370 239.056,181.981 239.066 C 181.901 239.068,181.045 239.696,180.078 240.461 M92.027 241.406 C 92.169 241.943,92.533 242.822,92.836 243.359 L 93.388 244.336 93.130 243.359 C 92.988 242.822,92.623 241.943,92.320 241.406 L 91.768 240.430 92.027 241.406 M236.719 241.526 C 236.719 242.418,238.942 255.408,239.723 259.081 C 240.689 263.623,240.808 262.412,239.873 257.553 C 238.439 250.104,238.327 249.486,237.662 245.313 C 237.040 241.410,236.719 240.119,236.719 241.526 M173.828 245.352 C 172.002 246.869,170.156 248.476,169.727 248.923 C 169.297 249.370,170.264 248.662,171.875 247.349 C 175.852 244.109,177.577 242.612,177.344 242.601 C 177.236 242.597,175.654 243.834,173.828 245.352 M93.387 244.727 C 93.387 244.941,93.638 245.557,93.945 246.094 C 94.252 246.631,94.504 246.895,94.504 246.680 C 94.504 246.465,94.252 245.850,93.945 245.313 C 93.638 244.775,93.387 244.512,93.387 244.727 M304.790 248.444 C 303.908 250.374,303.272 251.953,303.377 251.953 C 303.636 251.953,306.713 245.255,306.535 245.077 C 306.457 244.999,305.672 246.514,304.790 248.444 M261.263 247.363 C 260.768 248.062,259.425 249.775,258.279 251.172 L 256.195 253.711 258.078 251.724 C 259.946 249.753,262.726 246.094,262.356 246.094 C 262.249 246.094,261.758 246.665,261.263 247.363 M94.559 247.461 C 94.559 247.676,94.810 248.291,95.117 248.828 C 95.424 249.365,95.675 249.629,95.675 249.414 C 95.675 249.199,95.424 248.584,95.117 248.047 C 94.810 247.510,94.559 247.246,94.559 247.461 M179.191 252.145 C 173.092 256.985,164.340 265.111,162.788 267.376 C 162.343 268.024,163.603 266.845,165.586 264.755 C 169.138 261.011,175.431 255.481,182.129 250.216 C 185.179 247.819,185.801 247.266,185.443 247.266 C 185.387 247.266,182.573 249.461,179.191 252.145 M229.297 250.758 C 229.297 251.732,230.576 258.226,230.736 258.066 C 230.920 257.882,229.722 250.686,229.464 250.428 C 229.372 250.336,229.297 250.484,229.297 250.758 M96.484 251.704 C 96.484 251.781,97.152 253.056,97.968 254.536 C 103.759 265.040,109.266 272.497,116.992 280.300 C 120.314 283.654,120.345 283.676,117.566 280.695 C 108.969 271.473,102.120 262.046,97.890 253.613 C 97.013 251.863,96.484 251.146,96.484 251.704 M161.475 256.348 C 158.917 258.979,156.410 261.748,155.903 262.500 C 155.311 263.379,155.585 263.169,156.671 261.914 C 157.600 260.840,160.205 258.071,162.459 255.762 C 164.712 253.452,166.460 251.563,166.341 251.563 C 166.223 251.563,164.033 253.716,161.475 256.348 M302.109 253.835 C 299.901 257.766,298.830 259.883,299.405 259.180 C 300.268 258.124,303.243 252.722,303.062 252.541 C 302.982 252.461,302.553 253.044,302.109 253.835 M254.712 255.197 L 253.761 256.445 255.005 255.298 C 256.300 254.104,256.448 253.892,255.957 253.928 C 255.796 253.940,255.236 254.511,254.712 255.197 M250.195 259.263 C 248.477 260.900,247.949 261.522,249.023 260.646 C 250.912 259.106,253.850 256.230,253.495 256.269 C 253.399 256.279,251.914 257.627,250.195 259.263 M230.893 258.957 C 230.846 259.743,232.858 268.053,233.050 267.861 C 233.137 267.774,232.695 265.610,232.068 263.051 C 231.440 260.492,230.912 258.650,230.893 258.957 M297.013 262.598 C 289.808 274.477,276.578 287.880,263.672 296.378 C 259.091 299.395,257.627 300.490,259.375 299.596 C 267.159 295.609,281.185 283.529,289.120 273.976 C 293.140 269.136,299.365 260.156,298.700 260.156 C 298.587 260.156,297.828 261.255,297.013 262.598 M245.117 263.333 C 242.807 265.062,242.502 265.533,244.609 264.115 C 245.619 263.436,246.552 262.707,246.683 262.495 C 247.026 261.939,246.858 262.029,245.117 263.333 M240.863 263.867 C 241.185 265.303,241.408 265.615,241.400 264.616 C 241.397 264.204,241.216 263.604,240.998 263.281 C 240.708 262.853,240.672 263.011,240.863 263.867 M163.281 269.735 C 163.281 269.960,166.671 271.493,167.122 271.472 C 167.493 271.456,166.244 270.758,164.645 270.090 C 163.895 269.777,163.281 269.617,163.281 269.735 M168.028 271.844 C 168.858 272.381,176.687 275.005,177.393 274.983 C 177.688 274.973,175.908 274.288,173.438 273.459 C 170.967 272.630,168.594 271.834,168.164 271.689 C 167.500 271.465,167.479 271.488,168.028 271.844 M223.633 274.025 L 222.461 274.577 223.633 274.345 C 224.277 274.218,225.068 273.967,225.391 273.787 C 226.442 273.202,224.951 273.404,223.633 274.025 M219.922 275.000 C 219.149 275.248,219.108 275.313,219.727 275.313 C 220.156 275.313,220.947 275.172,221.484 275.000 C 222.258 274.752,222.298 274.687,221.680 274.687 C 221.250 274.687,220.459 274.828,219.922 275.000 M180.922 275.930 C 182.835 276.491,187.444 277.166,187.109 276.836 C 186.941 276.670,184.739 276.265,180.273 275.577 C 179.629 275.478,179.921 275.637,180.922 275.930 M216.602 275.781 C 215.538 276.052,215.520 276.081,216.406 276.098 C 216.943 276.109,217.734 275.966,218.164 275.781 C 219.127 275.367,218.228 275.367,216.602 275.781 M208.984 276.969 C 207.803 277.133,205.474 277.284,203.809 277.305 C 202.144 277.326,200.781 277.478,200.781 277.643 C 200.781 278.008,209.498 277.484,211.585 276.994 C 213.425 276.561,212.032 276.548,208.984 276.969 M192.676 277.624 C 193.267 277.713,194.233 277.713,194.824 277.624 C 195.415 277.534,194.932 277.461,193.750 277.461 C 192.568 277.461,192.085 277.534,192.676 277.624 M121.132 284.222 C 121.406 284.978,130.469 292.585,130.469 292.059 C 130.469 291.963,129.194 290.859,127.637 289.606 C 126.079 288.353,123.943 286.531,122.890 285.558 C 121.837 284.585,121.046 283.984,121.132 284.222 M130.859 292.331 C 130.859 292.552,134.957 295.507,136.914 296.697 C 138.954 297.937,137.426 296.673,134.082 294.356 C 132.310 293.128,130.859 292.216,130.859 292.331 M141.413 299.347 C 142.775 300.257,144.141 300.888,144.141 300.607 C 144.141 300.422,140.618 298.438,140.290 298.438 C 140.160 298.438,140.665 298.847,141.413 299.347 M252.747 302.773 C 249.854 304.262,245.284 306.348,242.591 307.409 C 239.898 308.470,237.897 309.346,238.144 309.356 C 239.557 309.415,255.437 302.293,257.617 300.623 C 258.871 299.663,258.305 299.913,252.747 302.773 M144.531 300.984 C 144.531 301.083,145.957 301.880,147.700 302.756 C 150.890 304.360,153.098 305.312,152.696 304.909 C 152.328 304.542,144.531 300.794,144.531 300.984 M155.014 306.128 C 160.010 308.489,177.135 313.729,179.601 313.651 C 179.971 313.639,177.285 312.865,173.633 311.930 C 167.422 310.341,159.692 307.793,155.339 305.899 C 152.717 304.759,152.476 304.929,155.014 306.128 M231.055 311.154 C 227.832 312.081,225.469 312.851,225.803 312.865 C 226.559 312.897,236.310 310.200,237.109 309.738 C 238.067 309.184,237.208 309.385,231.055 311.154 M220.020 313.564 C 219.321 313.650,218.750 313.867,218.750 314.046 C 218.750 314.331,219.693 314.207,222.461 313.556 C 223.445 313.324,221.910 313.329,220.020 313.564 M183.301 314.332 C 183.677 314.430,184.292 314.430,184.668 314.332 C 185.044 314.234,184.736 314.153,183.984 314.153 C 183.232 314.153,182.925 314.234,183.301 314.332 M213.086 314.686 L 209.570 315.196 212.695 315.005 C 214.414 314.900,216.436 314.663,217.188 314.478 C 219.224 313.978,217.288 314.076,213.086 314.686 M189.844 315.286 C 191.953 315.543,209.351 315.657,208.203 315.406 C 207.881 315.336,203.135 315.221,197.656 315.151 C 192.178 315.081,188.662 315.142,189.844 315.286 " stroke="none" fill="#fb301e" fill-rule="evenodd"></path><path id="path2" d="M191.106 83.424 C 191.227 83.545,192.267 83.713,193.417 83.797 C 195.405 83.942,195.431 83.932,193.945 83.599 C 192.125 83.190,190.790 83.108,191.106 83.424 M203.320 83.594 C 202.605 83.901,202.621 83.931,203.516 83.951 C 204.053 83.963,204.756 83.802,205.078 83.594 C 205.847 83.097,204.477 83.097,203.320 83.594 M187.686 83.969 C 187.824 84.192,188.395 84.375,188.955 84.375 C 190.180 84.375,190.038 84.188,188.541 83.828 C 187.815 83.654,187.521 83.702,187.686 83.969 M212.305 84.375 C 211.612 84.672,211.646 84.714,212.598 84.738 C 213.188 84.753,213.672 84.590,213.672 84.375 C 213.672 83.917,213.372 83.917,212.305 84.375 M273.677 110.618 C 273.790 110.801,274.040 110.853,274.233 110.733 C 274.426 110.614,274.808 110.875,275.081 111.313 C 275.355 111.751,275.743 112.109,275.943 112.109 C 276.144 112.109,275.923 111.699,275.452 111.198 C 274.654 110.349,273.221 109.881,273.677 110.618 M118.468 116.569 L 117.383 117.773 118.582 116.694 C 119.241 116.100,119.883 115.716,120.007 115.841 C 120.132 115.966,120.332 115.909,120.452 115.716 C 121.004 114.822,119.433 115.497,118.468 116.569 M281.641 117.773 C 283.025 119.170,284.245 120.313,284.352 120.313 C 284.460 120.313,283.415 119.170,282.031 117.773 C 280.647 116.377,279.427 115.234,279.319 115.234 C 279.212 115.234,280.257 116.377,281.641 117.773 M191.797 120.462 C 191.797 120.545,192.236 120.696,192.773 120.799 C 193.311 120.901,193.750 120.834,193.750 120.649 C 193.750 120.464,193.311 120.313,192.773 120.313 C 192.236 120.313,191.797 120.380,191.797 120.462 M201.758 120.703 C 201.107 120.983,201.192 121.043,202.269 121.066 C 203.037 121.083,203.464 120.935,203.320 120.703 C 203.039 120.248,202.818 120.248,201.758 120.703 M186.173 121.549 C 186.284 121.729,186.705 121.875,187.109 121.875 C 187.514 121.875,187.935 121.729,188.046 121.549 C 188.156 121.370,187.735 121.224,187.109 121.224 C 186.484 121.224,186.062 121.370,186.173 121.549 M112.891 122.461 C 112.386 122.998,112.113 123.438,112.284 123.438 C 112.456 123.438,112.354 123.745,112.060 124.121 C 111.572 124.743,111.586 124.755,112.216 124.261 C 112.598 123.962,112.816 123.623,112.701 123.508 C 112.587 123.394,112.877 122.892,113.346 122.392 C 113.815 121.893,114.111 121.484,114.003 121.484 C 113.896 121.484,113.395 121.924,112.891 122.461 M288.571 124.645 C 288.838 124.987,288.965 125.358,288.854 125.469 C 288.744 125.579,288.965 125.915,289.346 126.214 C 289.961 126.697,289.985 126.688,289.554 126.136 C 289.287 125.794,289.160 125.423,289.271 125.313 C 289.381 125.202,289.160 124.867,288.779 124.567 C 288.164 124.084,288.140 124.093,288.571 124.645 M232.009 128.259 C 232.274 128.524,232.263 128.822,231.974 129.170 C 231.738 129.455,231.688 129.688,231.863 129.688 C 232.038 129.688,231.839 129.961,231.422 130.295 C 230.696 130.877,230.702 130.884,231.554 130.471 C 232.043 130.233,232.341 129.872,232.214 129.668 C 232.088 129.464,232.171 129.297,232.399 129.297 C 232.626 129.297,232.813 128.975,232.813 128.581 C 232.813 128.187,232.543 127.865,232.214 127.865 C 231.810 127.865,231.744 127.994,232.009 128.259 M154.290 134.863 L 153.448 136.133 154.315 135.156 C 154.791 134.619,155.347 134.228,155.549 134.287 C 155.752 134.346,155.806 134.214,155.670 133.994 C 155.308 133.409,155.215 133.468,154.290 134.863 M228.467 133.789 C 228.440 133.896,228.396 134.162,228.369 134.380 C 228.342 134.598,227.793 135.233,227.148 135.793 L 225.977 136.809 227.310 135.861 C 228.043 135.339,228.687 134.616,228.740 134.253 C 228.826 133.673,228.594 133.280,228.467 133.789 M223.618 139.536 L 221.680 141.571 223.828 139.660 C 225.010 138.609,226.050 137.693,226.139 137.624 C 226.229 137.556,226.134 137.500,225.929 137.500 C 225.724 137.500,224.684 138.416,223.618 139.536 M234.794 140.004 C 234.482 140.381,234.467 140.636,234.747 140.809 C 234.972 140.948,235.170 141.007,235.186 140.941 C 235.565 139.409,235.473 139.187,234.794 140.004 M145.228 142.537 C 144.523 143.303,144.311 143.624,144.758 143.253 C 145.205 142.881,145.659 142.664,145.766 142.771 C 145.873 142.878,146.345 142.556,146.815 142.056 C 147.454 141.375,147.524 141.146,147.091 141.146 C 146.772 141.146,145.934 141.772,145.228 142.537 M143.164 145.151 L 141.992 146.158 143.262 145.318 C 143.960 144.856,144.531 144.402,144.531 144.309 C 144.531 144.017,144.366 144.119,143.164 145.151 M230.057 145.996 L 228.711 147.461 230.176 146.115 C 231.539 144.862,231.820 144.531,231.522 144.531 C 231.457 144.531,230.797 145.190,230.057 145.996 M211.320 151.767 C 211.049 152.095,210.736 152.272,210.625 152.161 C 210.339 151.876,209.373 152.742,209.387 153.270 C 209.393 153.513,209.580 153.400,209.802 153.019 C 210.023 152.639,210.346 152.415,210.519 152.522 C 210.692 152.629,211.147 152.369,211.532 151.944 C 211.916 151.519,212.137 151.172,212.022 151.172 C 211.908 151.172,211.592 151.440,211.320 151.767 M173.661 153.348 C 173.517 153.921,173.475 154.464,173.567 154.556 C 173.659 154.649,173.852 154.256,173.996 153.683 C 174.139 153.111,174.181 152.567,174.089 152.475 C 173.997 152.383,173.804 152.776,173.661 153.348 M222.052 154.004 L 220.508 155.664 222.168 154.120 C 223.712 152.684,224.008 152.344,223.712 152.344 C 223.648 152.344,222.901 153.091,222.052 154.004 M206.030 156.122 C 205.429 156.910,205.136 157.432,205.380 157.282 C 205.880 156.973,207.571 154.688,207.300 154.688 C 207.203 154.688,206.632 155.333,206.030 156.122 M174.078 157.504 C 173.947 157.996,173.854 158.750,173.873 159.180 C 173.891 159.609,174.067 159.275,174.264 158.437 C 174.645 156.814,174.482 155.996,174.078 157.504 M216.211 158.594 C 215.689 159.171,215.688 159.245,216.208 159.245 C 216.530 159.245,217.059 158.952,217.383 158.594 C 217.905 158.016,217.906 157.943,217.386 157.943 C 217.064 157.943,216.535 158.236,216.211 158.594 M165.673 159.766 C 165.641 160.088,165.517 160.791,165.397 161.328 C 165.210 162.172,165.241 162.210,165.624 161.610 C 165.868 161.228,165.992 160.525,165.899 160.047 C 165.807 159.570,165.705 159.443,165.673 159.766 M200.391 160.938 C 199.932 161.582,199.644 162.109,199.751 162.109 C 199.859 162.109,200.322 161.582,200.781 160.938 C 201.240 160.293,201.528 159.766,201.420 159.766 C 201.313 159.766,200.850 160.293,200.391 160.938 M214.457 160.738 C 214.191 161.058,213.842 161.238,213.680 161.138 C 213.518 161.038,213.055 161.347,212.650 161.826 C 211.916 162.693,211.916 162.694,212.727 162.011 C 213.174 161.634,213.629 161.416,213.739 161.525 C 213.848 161.634,214.256 161.371,214.646 160.940 C 215.036 160.509,215.262 160.156,215.147 160.156 C 215.033 160.156,214.722 160.418,214.457 160.738 M174.479 163.542 C 174.336 163.685,174.236 164.432,174.258 165.202 L 174.297 166.602 174.655 165.078 C 175.015 163.543,174.960 163.061,174.479 163.542 M165.820 166.406 C 165.674 166.868,165.642 167.334,165.749 167.442 C 165.856 167.549,166.064 167.259,166.211 166.797 C 166.358 166.335,166.390 165.869,166.282 165.761 C 166.175 165.654,165.967 165.944,165.820 166.406 M206.051 167.975 C 205.916 168.193,205.662 168.283,205.486 168.175 C 205.310 168.066,204.974 168.210,204.738 168.494 C 204.046 169.328,205.349 169.139,206.114 168.294 C 206.470 167.900,206.657 167.578,206.529 167.578 C 206.401 167.578,206.186 167.757,206.051 167.975 M190.218 169.822 C 189.058 171.058,188.941 171.251,189.869 170.402 C 190.636 169.700,191.383 169.218,191.530 169.329 C 191.677 169.440,191.711 169.416,191.605 169.274 C 191.499 169.133,191.609 168.781,191.848 168.493 C 192.871 167.260,191.819 168.118,190.218 169.822 M174.708 171.680 C 174.712 172.539,174.792 172.845,174.886 172.359 C 174.979 171.873,174.976 171.170,174.878 170.796 C 174.780 170.423,174.704 170.820,174.708 171.680 M166.260 171.924 C 165.934 173.552,166.250 173.868,166.602 172.266 C 166.750 171.590,166.790 170.956,166.690 170.857 C 166.591 170.757,166.397 171.238,166.260 171.924 M166.580 176.736 C 166.433 177.520,166.410 178.259,166.529 178.378 C 166.649 178.498,166.867 177.954,167.014 177.170 C 167.161 176.386,167.184 175.647,167.064 175.528 C 166.945 175.408,166.727 175.952,166.580 176.736 M175.099 177.148 C 175.103 178.008,175.183 178.313,175.276 177.827 C 175.370 177.342,175.366 176.638,175.268 176.265 C 175.171 175.892,175.094 176.289,175.099 177.148 M177.363 182.594 C 177.106 182.903,176.643 183.060,176.334 182.941 C 175.941 182.790,175.845 182.915,176.014 183.355 C 176.352 184.236,176.761 184.141,177.503 183.008 C 178.199 181.945,178.113 181.690,177.363 182.594 M84.431 191.406 C 84.432 191.943,84.574 193.174,84.746 194.141 L 85.058 195.898 85.080 193.945 C 85.092 192.871,84.950 191.641,84.766 191.211 C 84.460 190.499,84.430 190.516,84.431 191.406 M276.172 191.602 C 275.246 192.131,275.239 192.161,276.032 192.174 C 276.493 192.181,276.971 191.924,277.094 191.602 C 277.363 190.902,277.396 190.902,276.172 191.602 M315.311 199.414 C 315.320 201.348,315.453 203.457,315.606 204.102 C 315.760 204.746,315.812 203.340,315.723 200.977 C 315.521 195.614,315.291 194.743,315.311 199.414 M275.979 200.386 C 275.846 200.602,275.991 200.676,276.306 200.555 C 276.675 200.414,277.010 200.720,277.272 201.439 C 277.591 202.316,277.679 202.376,277.704 201.738 C 277.752 200.475,276.521 199.510,275.979 200.386 M84.622 205.997 C 84.459 206.825,84.415 207.592,84.526 207.703 C 84.822 207.999,85.251 206.040,85.073 205.207 C 84.980 204.776,84.802 205.089,84.622 205.997 M276.568 206.868 C 276.572 207.280,276.753 207.881,276.971 208.203 C 277.261 208.631,277.297 208.473,277.105 207.617 C 276.784 206.181,276.560 205.869,276.568 206.868 M314.910 208.789 C 314.904 209.219,315.050 209.922,315.234 210.352 C 315.662 211.347,315.662 210.320,315.234 208.984 C 314.983 208.199,314.919 208.161,314.910 208.789 M223.532 218.060 C 223.576 218.681,223.752 218.983,223.953 218.781 C 224.155 218.580,224.123 218.133,223.878 217.713 C 223.509 217.081,223.466 217.123,223.532 218.060 M218.003 220.858 C 217.635 221.301,217.644 221.406,218.045 221.347 C 218.584 221.268,218.932 220.755,218.643 220.466 C 218.548 220.371,218.260 220.547,218.003 220.858 M236.198 238.151 C 236.055 238.294,235.949 238.778,235.962 239.225 C 235.985 239.974,236.017 239.964,236.361 239.103 C 236.744 238.147,236.664 237.684,236.198 238.151 M177.134 242.851 C 176.801 243.359,176.333 243.654,176.094 243.507 C 175.812 243.333,175.772 243.419,175.979 243.754 C 176.222 244.147,176.504 244.028,177.171 243.253 C 177.651 242.694,178.133 242.326,178.241 242.434 C 178.349 242.542,178.535 242.472,178.655 242.279 C 179.164 241.455,177.683 242.012,177.134 242.851 M186.046 246.582 C 185.359 247.470,185.086 248.258,185.741 247.461 C 186.094 247.031,186.560 246.728,186.775 246.787 C 186.991 246.846,187.056 246.714,186.920 246.494 C 186.602 245.980,186.504 245.990,186.046 246.582 M170.504 248.444 C 170.369 248.662,170.108 248.748,169.925 248.635 C 169.741 248.521,169.211 249.002,168.746 249.702 L 167.901 250.977 168.760 250.000 C 169.233 249.463,169.766 249.023,169.946 249.023 C 170.126 249.023,170.493 248.804,170.762 248.535 C 171.030 248.267,171.137 248.047,171.000 248.047 C 170.862 248.047,170.639 248.226,170.504 248.444 M139.942 250.227 C 140.319 250.674,140.534 251.132,140.421 251.246 C 140.308 251.359,140.527 251.696,140.909 251.995 C 141.524 252.478,141.547 252.469,141.117 251.917 C 140.850 251.575,140.719 251.208,140.826 251.101 C 140.933 250.994,140.624 250.571,140.139 250.160 C 139.258 249.414,139.258 249.414,139.942 250.227 M166.406 251.563 C 165.947 252.207,165.660 252.734,165.767 252.734 C 165.875 252.734,166.338 252.207,166.797 251.563 C 167.256 250.918,167.543 250.391,167.436 250.391 C 167.329 250.391,166.865 250.918,166.406 251.563 M257.813 251.367 C 257.545 251.689,257.466 251.953,257.637 251.953 C 257.809 251.953,257.523 252.437,257.002 253.027 L 256.055 254.102 257.127 253.156 C 257.717 252.636,258.114 252.125,258.010 252.020 C 257.905 251.915,258.015 251.594,258.254 251.305 C 258.494 251.017,258.602 250.781,258.494 250.781 C 258.387 250.781,258.080 251.045,257.813 251.367 M163.458 254.004 L 161.914 255.664 163.574 254.120 C 165.118 252.684,165.414 252.344,165.118 252.344 C 165.055 252.344,164.307 253.091,163.458 254.004 M143.308 254.040 C 143.547 254.328,143.656 254.652,143.549 254.758 C 143.442 254.865,143.707 255.272,144.138 255.662 C 144.569 256.052,144.922 256.220,144.922 256.036 C 144.922 255.852,145.669 256.394,146.582 257.242 C 147.495 258.089,147.105 257.597,145.714 256.149 C 143.444 253.784,142.166 252.663,143.308 254.040 M254.423 255.176 C 253.988 255.659,253.492 256.318,253.321 256.641 C 252.991 257.262,253.081 257.177,254.664 255.371 C 255.181 254.780,255.517 254.297,255.410 254.297 C 255.302 254.297,254.858 254.692,254.423 255.176 M160.352 257.031 C 159.734 257.676,159.377 258.203,159.558 258.203 C 159.739 258.203,159.555 258.599,159.149 259.082 C 158.739 259.570,158.971 259.452,159.670 258.818 C 160.363 258.189,160.843 257.588,160.737 257.482 C 160.632 257.376,160.836 256.968,161.193 256.575 C 162.267 255.387,161.558 255.772,160.352 257.031 M165.365 264.130 C 164.489 265.044,163.543 267.056,164.385 266.214 C 164.530 266.069,164.656 265.745,164.666 265.495 C 164.676 265.244,164.940 265.098,165.252 265.169 C 165.565 265.241,165.688 265.167,165.526 265.006 C 165.167 264.646,166.386 263.223,166.822 263.492 C 166.993 263.598,167.226 263.535,167.339 263.353 C 167.846 262.532,166.320 263.133,165.365 264.130 M112.240 275.191 C 112.240 275.504,112.781 276.248,113.443 276.845 C 114.551 277.845,114.576 277.851,113.765 276.924 C 113.280 276.371,112.977 275.825,113.092 275.710 C 113.206 275.596,113.062 275.304,112.770 275.062 C 112.365 274.725,112.240 274.756,112.240 275.191 M286.328 276.367 C 286.061 276.689,285.978 276.953,286.146 276.953 C 286.313 276.953,286.114 277.349,285.705 277.832 L 284.961 278.711 285.842 277.965 C 286.327 277.554,286.636 277.131,286.529 277.024 C 286.422 276.917,286.531 276.594,286.770 276.305 C 287.009 276.017,287.117 275.781,287.010 275.781 C 286.902 275.781,286.596 276.045,286.328 276.367 M186.775 276.910 C 186.400 277.148,186.541 277.246,187.256 277.246 C 187.812 277.246,188.172 277.092,188.056 276.904 C 187.792 276.478,187.454 276.480,186.775 276.910 M189.900 277.301 C 189.526 277.538,189.673 277.637,190.395 277.637 C 190.959 277.637,191.516 277.483,191.632 277.295 C 191.903 276.856,190.595 276.861,189.900 277.301 M206.836 277.344 C 207.266 277.528,207.881 277.679,208.203 277.679 C 208.572 277.679,208.500 277.555,208.008 277.344 C 207.578 277.159,206.963 277.008,206.641 277.008 C 206.271 277.008,206.344 277.132,206.836 277.344 M202.641 278.011 C 203.127 278.104,203.830 278.101,204.204 278.003 C 204.577 277.905,204.180 277.829,203.320 277.833 C 202.461 277.837,202.155 277.917,202.641 278.011 M117.981 281.061 C 119.586 282.784,120.978 284.139,121.076 284.074 C 121.174 284.009,119.861 282.599,118.158 280.942 L 115.063 277.930 117.981 281.061 M281.620 281.543 L 280.273 283.008 281.738 281.662 C 282.544 280.921,283.203 280.262,283.203 280.197 C 283.203 279.899,282.873 280.180,281.620 281.543 M208.203 315.239 C 208.525 315.445,209.302 315.616,209.928 315.619 C 211.439 315.627,211.111 315.401,209.180 315.105 C 208.116 314.942,207.804 314.985,208.203 315.239 " stroke="none" fill="#fb3c2c" fill-rule="evenodd"></path><path id="path3" d="M195.703 277.803 C 195.703 277.980,196.846 278.125,198.242 278.125 C 199.639 278.125,200.781 277.980,200.781 277.803 C 200.781 277.625,199.639 277.480,198.242 277.480 C 196.846 277.481,195.703 277.626,195.703 277.803 " stroke="none" fill="#fa342c" fill-rule="evenodd"></path><path id="path4" d="M195.000 83.103 C 196.869 83.175,200.033 83.175,202.031 83.104 C 204.029 83.033,202.500 82.974,198.633 82.974 C 194.766 82.973,193.131 83.032,195.000 83.103 M188.184 83.479 C 188.667 83.572,189.458 83.572,189.941 83.479 C 190.425 83.386,190.029 83.310,189.063 83.310 C 188.096 83.310,187.700 83.386,188.184 83.479 M207.520 83.483 C 208.110 83.572,209.077 83.572,209.668 83.483 C 210.259 83.393,209.775 83.320,208.594 83.320 C 207.412 83.320,206.929 83.393,207.520 83.483 M184.863 83.863 C 185.239 83.961,185.854 83.961,186.230 83.863 C 186.606 83.765,186.299 83.684,185.547 83.684 C 184.795 83.684,184.487 83.765,184.863 83.863 M231.836 87.895 C 232.840 88.321,233.594 88.361,233.593 87.988 C 233.593 87.827,233.021 87.666,232.323 87.629 C 231.306 87.577,231.209 87.629,231.836 87.895 M249.251 94.290 C 249.649 94.654,254.297 96.866,254.297 96.691 C 254.297 96.472,249.784 94.141,249.360 94.141 C 249.211 94.141,249.162 94.208,249.251 94.290 M266.406 104.027 C 266.406 104.146,266.978 104.644,267.676 105.134 C 268.374 105.624,268.727 105.751,268.460 105.418 C 268.194 105.084,268.106 104.667,268.265 104.491 C 268.424 104.315,268.327 104.303,268.049 104.463 C 267.771 104.624,267.288 104.542,266.975 104.283 C 266.662 104.023,266.406 103.908,266.406 104.027 M276.563 111.823 C 276.563 111.927,278.442 113.749,280.740 115.870 C 283.037 117.991,284.799 119.530,284.654 119.289 C 284.315 118.725,276.563 111.571,276.563 111.823 M117.375 117.285 L 113.867 120.898 117.480 117.391 C 120.836 114.133,121.272 113.672,120.988 113.672 C 120.930 113.672,119.304 115.298,117.375 117.285 M287.294 122.754 C 288.558 124.204,289.665 125.391,289.754 125.391 C 290.013 125.391,286.898 121.759,285.901 120.898 C 285.403 120.469,286.030 121.304,287.294 122.754 M192.090 121.369 C 192.573 121.463,193.364 121.463,193.848 121.369 C 194.331 121.276,193.936 121.200,192.969 121.200 C 192.002 121.200,191.606 121.276,192.090 121.369 M203.223 121.374 C 203.813 121.463,204.780 121.463,205.371 121.374 C 205.962 121.284,205.479 121.211,204.297 121.211 C 203.115 121.211,202.632 121.284,203.223 121.374 M112.280 122.754 L 111.133 124.023 112.402 122.876 C 113.586 121.807,113.851 121.484,113.550 121.484 C 113.482 121.484,112.911 122.056,112.280 122.754 M231.097 127.998 C 231.335 128.175,231.482 128.629,231.424 129.006 C 231.366 129.383,231.463 129.602,231.640 129.492 C 232.137 129.185,231.834 127.990,231.216 127.823 C 230.850 127.725,230.810 127.784,231.097 127.998 M105.269 131.647 C 105.135 131.865,104.833 131.926,104.600 131.782 C 104.342 131.622,104.289 131.703,104.465 131.988 C 104.625 132.245,104.542 132.712,104.283 133.025 C 104.023 133.338,103.908 133.594,104.027 133.594 C 104.146 133.594,104.619 133.066,105.078 132.422 C 105.537 131.777,105.823 131.250,105.714 131.250 C 105.604 131.250,105.404 131.429,105.269 131.647 M241.172 133.300 C 241.017 133.569,241.036 133.657,241.215 133.495 C 241.393 133.333,241.970 133.483,242.497 133.828 C 243.024 134.174,243.336 134.263,243.190 134.027 C 242.685 133.209,241.475 132.773,241.172 133.300 M247.982 138.017 C 248.451 138.517,248.702 139.072,248.539 139.252 C 248.376 139.431,248.475 139.444,248.760 139.279 C 249.234 139.005,247.980 137.109,247.325 137.109 C 247.217 137.109,247.513 137.518,247.982 138.017 M100.690 138.215 C 100.848 138.627,100.761 138.705,100.397 138.480 C 100.052 138.268,99.973 138.311,100.158 138.612 C 100.537 139.224,100.690 139.183,101.137 138.346 C 101.421 137.816,101.383 137.630,100.993 137.630 C 100.685 137.630,100.558 137.874,100.690 138.215 M220.306 142.480 L 215.820 147.070 220.410 142.584 C 224.673 138.418,225.177 137.891,224.896 137.891 C 224.839 137.891,222.773 139.956,220.306 142.480 M146.866 142.090 L 143.555 145.508 146.973 142.196 C 150.147 139.120,150.569 138.672,150.284 138.672 C 150.226 138.672,148.688 140.210,146.866 142.090 M161.774 139.844 C 161.774 140.166,161.925 140.781,162.109 141.211 C 162.321 141.703,162.445 141.776,162.445 141.406 C 162.445 141.084,162.294 140.469,162.109 140.039 C 161.898 139.547,161.774 139.474,161.774 139.844 M235.327 140.723 L 234.180 141.992 235.449 140.845 C 236.147 140.214,236.719 139.643,236.719 139.575 C 236.719 139.274,236.396 139.539,235.327 140.723 M250.781 140.357 C 250.781 140.424,251.353 140.995,252.051 141.626 L 253.320 142.773 252.173 141.504 C 251.104 140.321,250.781 140.055,250.781 140.357 M97.852 143.359 C 97.518 144.004,97.333 144.531,97.441 144.531 C 97.548 144.531,97.909 144.004,98.242 143.359 C 98.575 142.715,98.760 142.188,98.653 142.188 C 98.545 142.188,98.185 142.715,97.852 143.359 M231.629 144.824 L 229.102 147.461 231.738 144.933 C 233.188 143.543,234.375 142.356,234.375 142.296 C 234.375 142.009,233.977 142.375,231.629 144.824 M256.552 146.627 C 257.255 147.433,257.725 148.263,257.597 148.471 C 257.469 148.678,257.509 148.822,257.686 148.792 C 258.470 148.655,258.741 148.871,258.208 149.207 C 257.747 149.499,257.801 149.562,258.470 149.511 C 259.299 149.449,257.193 146.316,255.726 145.432 C 255.477 145.282,255.849 145.820,256.552 146.627 M95.975 147.075 C 95.617 147.824,95.406 148.438,95.504 148.438 C 95.771 148.438,96.957 146.046,96.779 145.867 C 96.694 145.782,96.332 146.326,95.975 147.075 M213.061 149.316 L 211.914 150.586 213.184 149.439 C 213.882 148.808,214.453 148.236,214.453 148.169 C 214.453 147.867,214.131 148.133,213.061 149.316 M94.734 149.586 C 94.592 150.035,94.356 150.328,94.210 150.238 C 94.064 150.149,93.918 150.541,93.885 151.112 C 93.830 152.046,93.900 152.001,94.596 150.647 C 95.021 149.821,95.284 149.060,95.181 148.957 C 95.078 148.854,94.877 149.137,94.734 149.586 M173.919 150.391 C 173.919 151.143,173.999 151.450,174.097 151.074 C 174.196 150.698,174.196 150.083,174.097 149.707 C 173.999 149.331,173.919 149.639,173.919 150.391 M164.153 152.344 C 164.153 153.096,164.234 153.403,164.332 153.027 C 164.430 152.651,164.430 152.036,164.332 151.660 C 164.234 151.284,164.153 151.592,164.153 152.344 M209.354 152.637 L 208.008 154.102 209.473 152.755 C 210.836 151.502,211.117 151.172,210.819 151.172 C 210.754 151.172,210.094 151.831,209.354 152.637 M222.256 154.189 C 220.650 155.848,219.788 156.813,220.341 156.334 C 220.895 155.854,221.466 155.551,221.611 155.660 C 221.756 155.770,221.783 155.738,221.670 155.589 C 221.557 155.440,222.386 154.385,223.512 153.245 C 224.638 152.105,225.473 151.172,225.368 151.172 C 225.262 151.172,223.862 152.530,222.256 154.189 M174.309 154.297 C 174.309 155.049,174.390 155.356,174.488 154.980 C 174.586 154.604,174.586 153.989,174.488 153.613 C 174.390 153.237,174.309 153.545,174.309 154.297 M164.560 155.469 C 164.560 156.436,164.636 156.831,164.729 156.348 C 164.822 155.864,164.822 155.073,164.729 154.590 C 164.636 154.106,164.560 154.502,164.560 155.469 M307.992 155.886 C 307.789 156.213,307.852 156.272,308.185 156.066 C 308.551 155.840,308.612 156.000,308.422 156.689 C 308.195 157.511,308.217 157.534,308.616 156.896 C 308.913 156.420,308.934 156.043,308.678 155.788 C 308.423 155.532,308.190 155.565,307.992 155.886 M91.450 157.465 C 91.209 158.156,91.080 158.789,91.164 158.872 C 91.248 158.956,91.513 158.459,91.753 157.769 C 91.994 157.079,92.123 156.446,92.039 156.362 C 91.956 156.278,91.690 156.775,91.450 157.465 M203.686 157.520 L 202.539 158.789 203.809 157.642 C 204.507 157.011,205.078 156.439,205.078 156.372 C 205.078 156.070,204.756 156.336,203.686 157.520 M264.230 157.377 C 264.230 157.800,264.357 158.067,264.513 157.971 C 264.668 157.875,264.977 158.107,265.198 158.488 C 265.420 158.868,265.603 159.004,265.604 158.789 C 265.606 158.574,265.298 157.996,264.919 157.503 C 264.276 156.669,264.230 156.660,264.230 157.377 M174.716 158.594 C 174.716 159.561,174.792 159.956,174.885 159.473 C 174.978 158.989,174.978 158.198,174.885 157.715 C 174.792 157.231,174.716 157.627,174.716 158.594 M217.358 158.691 L 216.211 159.961 217.480 158.814 C 218.179 158.183,218.750 157.611,218.750 157.544 C 218.750 157.242,218.428 157.508,217.358 158.691 M164.961 160.547 C 164.961 161.729,165.034 162.212,165.124 161.621 C 165.213 161.030,165.213 160.063,165.124 159.473 C 165.034 158.882,164.961 159.365,164.961 160.547 M89.489 162.926 C 89.224 163.808,89.080 164.601,89.168 164.689 C 89.256 164.777,89.544 164.127,89.808 163.246 C 90.072 162.364,90.217 161.571,90.129 161.483 C 90.041 161.395,89.753 162.044,89.489 162.926 M198.050 162.300 C 197.785 162.620,197.368 162.768,197.124 162.628 C 196.879 162.489,196.810 162.519,196.969 162.694 C 197.129 162.870,197.047 163.294,196.789 163.636 C 196.530 163.978,196.883 163.742,197.574 163.111 C 198.264 162.479,198.828 161.908,198.828 161.841 C 198.828 161.563,198.504 161.754,198.050 162.300 M211.499 163.770 L 210.352 165.039 211.621 163.892 C 212.319 163.261,212.891 162.689,212.891 162.622 C 212.891 162.320,212.568 162.586,211.499 163.770 M175.121 165.430 C 175.123 166.719,175.196 167.199,175.283 166.497 C 175.370 165.795,175.368 164.740,175.279 164.153 C 175.190 163.566,175.119 164.141,175.121 165.430 M165.359 166.016 C 165.359 167.412,165.430 167.983,165.517 167.285 C 165.604 166.587,165.604 165.444,165.517 164.746 C 165.430 164.048,165.359 164.619,165.359 166.016 M194.510 165.527 L 193.164 166.992 194.629 165.646 C 195.435 164.906,196.094 164.246,196.094 164.181 C 196.094 163.883,195.763 164.164,194.510 165.527 M88.114 167.411 C 87.970 167.983,87.928 168.527,88.020 168.619 C 88.112 168.711,88.305 168.318,88.449 167.746 C 88.592 167.173,88.635 166.629,88.542 166.537 C 88.450 166.445,88.258 166.838,88.114 167.411 M189.931 169.593 C 188.368 171.123,187.147 172.434,187.218 172.504 C 187.289 172.575,188.651 171.320,190.246 169.715 C 191.840 168.110,193.061 166.800,192.959 166.803 C 192.857 166.807,191.494 168.062,189.931 169.593 M128.970 168.181 C 128.315 169.617,128.440 169.924,129.148 168.618 C 129.478 168.008,129.676 167.436,129.586 167.347 C 129.497 167.257,129.219 167.633,128.970 168.181 M165.742 171.094 C 165.742 172.275,165.815 172.759,165.905 172.168 C 165.994 171.577,165.994 170.610,165.905 170.020 C 165.815 169.429,165.742 169.912,165.742 171.094 M175.502 171.289 C 175.505 172.363,175.581 172.756,175.671 172.163 C 175.761 171.569,175.758 170.690,175.666 170.209 C 175.573 169.729,175.499 170.215,175.502 171.289 M184.586 174.593 C 183.756 175.444,182.885 176.031,182.651 175.898 C 182.418 175.765,182.361 175.804,182.525 175.985 C 182.689 176.165,182.341 176.853,181.751 177.512 C 181.161 178.171,181.950 177.485,183.503 175.987 C 185.057 174.489,186.328 173.214,186.328 173.155 C 186.328 172.877,185.987 173.158,184.586 174.593 M166.127 176.758 C 166.130 177.832,166.206 178.225,166.296 177.631 C 166.386 177.038,166.383 176.159,166.291 175.678 C 166.198 175.198,166.124 175.684,166.127 176.758 M175.872 176.172 C 175.872 176.924,175.952 177.231,176.051 176.855 C 176.149 176.479,176.149 175.864,176.051 175.488 C 175.952 175.112,175.872 175.420,175.872 176.172 M166.505 181.445 C 166.509 182.305,166.589 182.610,166.683 182.124 C 166.776 181.638,166.772 180.935,166.675 180.562 C 166.577 180.188,166.500 180.586,166.505 181.445 M240.039 181.641 C 240.469 181.825,241.084 181.976,241.406 181.976 C 241.776 181.976,241.703 181.852,241.211 181.641 C 240.781 181.456,240.166 181.305,239.844 181.305 C 239.474 181.305,239.547 181.429,240.039 181.641 M84.856 184.766 C 84.856 185.518,84.937 185.825,85.035 185.449 C 85.133 185.073,85.133 184.458,85.035 184.082 C 84.937 183.706,84.856 184.014,84.856 184.766 M315.325 185.547 C 315.325 186.299,315.405 186.606,315.504 186.230 C 315.602 185.854,315.602 185.239,315.504 184.863 C 315.405 184.487,315.325 184.795,315.325 185.547 M84.474 188.086 C 84.478 188.945,84.558 189.251,84.651 188.765 C 84.745 188.279,84.741 187.576,84.643 187.202 C 84.546 186.829,84.469 187.227,84.474 188.086 M167.241 188.011 C 167.206 188.733,167.033 189.013,166.737 188.830 C 166.446 188.650,166.392 188.724,166.585 189.036 C 167.042 189.776,167.674 188.919,167.469 187.838 C 167.311 187.006,167.289 187.024,167.241 188.011 M123.178 188.672 C 123.225 189.390,123.477 189.662,124.127 189.700 C 124.815 189.741,124.842 189.714,124.249 189.579 C 123.829 189.483,123.402 189.020,123.300 188.550 C 123.145 187.838,123.125 187.859,123.178 188.672 M315.750 190.234 C 315.750 191.631,315.821 192.202,315.908 191.504 C 315.994 190.806,315.994 189.663,315.908 188.965 C 315.821 188.267,315.750 188.838,315.750 190.234 M267.773 189.063 C 268.203 189.247,268.818 189.398,269.141 189.398 C 269.510 189.398,269.438 189.274,268.945 189.063 C 268.516 188.878,267.900 188.727,267.578 188.727 C 267.209 188.727,267.281 188.851,267.773 189.063 M84.118 194.727 C 84.120 196.445,84.188 197.100,84.271 196.181 C 84.353 195.262,84.352 193.856,84.268 193.056 C 84.184 192.256,84.117 193.008,84.118 194.727 M168.047 192.773 C 168.047 193.203,168.187 193.994,168.359 194.531 C 168.607 195.305,168.672 195.345,168.672 194.727 C 168.672 194.297,168.531 193.506,168.359 192.969 C 168.112 192.195,168.047 192.155,168.047 192.773 M316.167 199.805 C 316.168 202.598,316.230 203.689,316.306 202.230 C 316.381 200.771,316.380 198.486,316.304 197.152 C 316.228 195.818,316.167 197.012,316.167 199.805 M149.219 199.020 C 149.219 199.287,151.611 200.473,151.789 200.294 C 151.874 200.209,151.330 199.848,150.581 199.490 C 149.832 199.133,149.219 198.921,149.219 199.020 M84.129 203.906 C 84.129 206.162,84.193 207.085,84.272 205.957 C 84.351 204.829,84.351 202.983,84.272 201.855 C 84.193 200.728,84.129 201.650,84.129 203.906 M275.653 201.400 C 275.825 201.848,275.970 201.890,276.179 201.551 C 276.396 201.200,276.521 201.216,276.680 201.616 C 276.827 201.987,276.901 201.941,276.922 201.465 C 276.942 201.035,276.668 200.781,276.184 200.781 C 275.643 200.781,275.485 200.965,275.653 201.400 M276.674 204.102 C 276.677 205.176,276.753 205.569,276.843 204.975 C 276.933 204.381,276.930 203.502,276.837 203.022 C 276.745 202.542,276.671 203.027,276.674 204.102 M121.996 204.883 C 121.998 206.172,122.071 206.652,122.158 205.950 C 122.245 205.248,122.243 204.193,122.154 203.606 C 122.065 203.019,121.994 203.594,121.996 204.883 M164.063 206.817 C 164.063 207.163,168.816 209.439,169.050 209.205 C 169.171 209.084,169.055 208.984,168.792 208.984 C 168.529 208.984,168.439 208.781,168.592 208.533 C 168.758 208.265,168.700 208.188,168.449 208.343 C 167.871 208.700,165.981 207.794,166.284 207.304 C 166.420 207.083,166.333 207.031,166.084 207.184 C 165.840 207.335,165.286 207.268,164.852 207.036 C 164.418 206.803,164.063 206.705,164.063 206.817 M315.724 208.789 C 315.728 209.648,315.808 209.954,315.901 209.468 C 315.995 208.982,315.991 208.279,315.893 207.906 C 315.796 207.532,315.719 207.930,315.724 208.789 M84.474 210.742 C 84.478 211.602,84.558 211.907,84.651 211.421 C 84.745 210.935,84.741 210.232,84.643 209.859 C 84.546 209.485,84.469 209.883,84.474 210.742 M221.845 218.652 L 220.898 219.727 221.904 218.844 C 222.457 218.359,223.028 218.080,223.174 218.226 C 223.319 218.371,223.438 218.285,223.438 218.034 C 223.438 217.284,222.850 217.512,221.845 218.652 M175.000 222.852 C 175.537 223.159,176.152 223.410,176.367 223.410 C 176.582 223.410,176.318 223.159,175.781 222.852 C 175.244 222.545,174.629 222.293,174.414 222.293 C 174.199 222.293,174.463 222.545,175.000 222.852 M127.557 227.958 C 127.617 229.752,127.985 230.037,128.049 228.337 C 128.077 227.593,127.968 226.902,127.806 226.802 C 127.645 226.703,127.533 227.222,127.557 227.958 M190.039 232.269 L 188.477 233.668 190.137 232.426 C 191.566 231.357,192.081 230.842,191.699 230.865 C 191.646 230.868,190.898 231.500,190.039 232.269 M269.204 233.025 C 268.550 234.461,268.674 234.767,269.382 233.462 C 269.713 232.852,269.910 232.280,269.821 232.190 C 269.731 232.101,269.454 232.476,269.204 233.025 M267.188 237.109 C 266.749 237.969,266.478 238.672,266.586 238.672 C 266.693 238.672,267.140 237.969,267.578 237.109 C 268.017 236.250,268.287 235.547,268.180 235.547 C 268.073 235.547,267.626 236.250,267.188 237.109 M308.657 240.446 C 308.003 241.883,308.128 242.189,308.835 240.883 C 309.166 240.274,309.363 239.702,309.274 239.612 C 309.184 239.523,308.907 239.898,308.657 240.446 M92.606 244.336 C 92.606 244.551,92.857 245.166,93.164 245.703 C 93.471 246.240,93.722 246.504,93.722 246.289 C 93.722 246.074,93.471 245.459,93.164 244.922 C 92.857 244.385,92.606 244.121,92.606 244.336 M181.055 251.410 L 179.492 252.808 181.152 251.567 C 182.581 250.498,183.097 249.983,182.715 250.006 C 182.661 250.009,181.914 250.641,181.055 251.410 M258.004 250.788 C 257.869 251.006,257.551 251.066,257.297 250.920 C 257.044 250.775,256.969 250.803,257.132 250.983 C 257.296 251.162,257.034 251.762,256.550 252.315 C 256.067 252.868,256.329 252.715,257.133 251.974 C 257.936 251.234,258.594 250.575,258.594 250.509 C 258.594 250.246,258.234 250.415,258.004 250.788 M161.712 255.371 L 157.617 259.570 161.816 255.476 C 164.126 253.224,166.016 251.334,166.016 251.277 C 166.016 250.994,165.515 251.471,161.712 255.371 M145.313 255.664 C 147.129 257.490,148.703 258.984,148.811 258.984 C 148.918 258.984,147.520 257.490,145.703 255.664 C 143.886 253.838,142.312 252.344,142.205 252.344 C 142.097 252.344,143.496 253.838,145.313 255.664 M254.077 255.176 L 252.930 256.445 254.199 255.298 C 254.897 254.667,255.469 254.096,255.469 254.028 C 255.469 253.727,255.146 253.992,254.077 255.176 M301.446 256.152 C 301.357 256.313,300.790 257.324,300.187 258.398 C 299.584 259.473,299.272 260.176,299.493 259.961 C 300.058 259.413,302.073 255.859,301.818 255.859 C 301.703 255.859,301.535 255.991,301.446 256.152 M173.416 257.715 L 172.070 259.180 173.535 257.834 C 174.899 256.581,175.180 256.250,174.881 256.250 C 174.816 256.250,174.157 256.909,173.416 257.715 M167.376 263.379 L 163.086 267.773 167.480 263.483 C 171.562 259.498,172.052 258.984,171.771 258.984 C 171.713 258.984,169.736 260.962,167.376 263.379 M156.449 260.933 C 155.834 261.576,155.405 262.164,155.497 262.240 C 155.589 262.316,156.165 261.791,156.777 261.072 C 158.159 259.450,157.954 259.363,156.449 260.933 M298.586 261.035 C 297.242 263.316,297.154 263.511,297.839 262.695 C 298.632 261.750,299.316 260.547,299.060 260.547 C 298.958 260.547,298.745 260.767,298.586 261.035 M232.461 268.066 C 232.439 268.442,232.158 268.750,231.836 268.750 C 231.514 268.750,231.250 268.909,231.250 269.104 C 231.250 269.299,231.602 269.366,232.031 269.254 C 233.467 268.878,232.902 270.222,231.419 270.712 C 230.653 270.965,230.106 271.252,230.205 271.351 C 230.551 271.697,233.203 270.347,233.164 269.844 C 233.087 268.839,232.501 267.358,232.461 268.066 M291.628 271.191 C 290.612 272.534,290.335 273.018,291.012 272.266 C 292.427 270.696,293.881 268.750,293.639 268.750 C 293.549 268.750,292.643 269.849,291.628 271.191 M107.804 270.691 C 108.258 271.329,108.830 271.975,109.073 272.125 C 109.317 272.276,109.025 271.754,108.423 270.965 C 107.117 269.253,106.625 269.035,107.804 270.691 M176.388 273.790 C 175.681 274.067,175.693 274.105,176.566 274.333 C 177.083 274.468,177.586 274.497,177.685 274.399 C 177.784 274.300,177.649 274.219,177.386 274.219 C 177.122 274.219,177.016 274.043,177.148 273.828 C 177.422 273.385,177.422 273.385,176.388 273.790 M288.642 274.900 C 287.953 275.680,287.916 275.786,288.508 275.289 C 288.955 274.914,289.409 274.696,289.517 274.804 C 289.625 274.912,289.714 274.736,289.714 274.414 C 289.714 273.662,289.751 273.645,288.642 274.900 M112.045 275.908 C 112.514 276.407,112.808 276.935,112.699 277.080 C 112.589 277.225,112.616 277.257,112.757 277.152 C 112.898 277.046,113.294 277.170,113.636 277.428 C 113.978 277.685,113.652 277.244,112.912 276.448 C 112.171 275.652,111.481 275.000,111.379 275.000 C 111.276 275.000,111.576 275.409,112.045 275.908 M182.422 275.391 C 181.637 275.642,181.599 275.706,182.227 275.715 C 182.656 275.721,183.359 275.575,183.789 275.391 C 184.784 274.963,183.757 274.963,182.422 275.391 M284.030 280.050 C 281.683 282.593,280.610 284.025,280.911 284.212 C 281.188 284.383,281.267 284.328,281.109 284.072 C 280.965 283.839,281.003 283.551,281.195 283.432 C 281.696 283.123,288.011 276.172,287.792 276.172 C 287.691 276.172,285.998 277.917,284.030 280.050 M189.160 276.832 C 189.536 276.930,190.151 276.930,190.527 276.832 C 190.903 276.734,190.596 276.653,189.844 276.653 C 189.092 276.653,188.784 276.734,189.160 276.832 M193.848 277.233 C 194.438 277.322,195.405 277.322,195.996 277.233 C 196.587 277.143,196.104 277.070,194.922 277.070 C 193.740 277.070,193.257 277.143,193.848 277.233 M202.441 277.233 C 203.032 277.322,203.999 277.322,204.590 277.233 C 205.181 277.143,204.697 277.070,203.516 277.070 C 202.334 277.070,201.851 277.143,202.441 277.233 M117.773 282.031 C 118.832 283.105,119.785 283.984,119.893 283.984 C 120.000 283.984,119.222 283.105,118.164 282.031 C 117.106 280.957,116.152 280.078,116.045 280.078 C 115.938 280.078,116.715 280.957,117.773 282.031 M122.249 286.035 C 123.868 287.760,124.219 288.070,124.219 287.777 C 124.219 287.714,123.384 286.879,122.363 285.921 L 120.508 284.180 122.249 286.035 M277.130 286.816 L 275.586 288.477 277.246 286.932 C 278.790 285.496,279.086 285.156,278.790 285.156 C 278.726 285.156,277.979 285.903,277.130 286.816 M131.641 293.501 C 131.641 293.609,132.168 294.072,132.813 294.531 C 133.457 294.990,133.984 295.278,133.984 295.170 C 133.984 295.063,133.457 294.600,132.813 294.141 C 132.168 293.682,131.641 293.394,131.641 293.501 M148.828 303.906 C 149.580 304.318,150.371 304.655,150.586 304.655 C 150.801 304.655,150.361 304.318,149.609 303.906 C 148.857 303.495,148.066 303.158,147.852 303.158 C 147.637 303.158,148.076 303.495,148.828 303.906 M184.863 315.113 C 185.239 315.211,185.854 315.211,186.230 315.113 C 186.606 315.015,186.299 314.934,185.547 314.934 C 184.795 314.934,184.487 315.015,184.863 315.113 M211.816 315.504 C 212.192 315.602,212.808 315.602,213.184 315.504 C 213.560 315.405,213.252 315.325,212.500 315.325 C 211.748 315.325,211.440 315.405,211.816 315.504 M192.285 315.905 C 192.876 315.994,193.843 315.994,194.434 315.905 C 195.024 315.815,194.541 315.742,193.359 315.742 C 192.178 315.742,191.694 315.815,192.285 315.905 M205.362 315.907 C 206.056 315.993,207.286 315.995,208.097 315.910 C 208.907 315.826,208.340 315.755,206.836 315.753 C 205.332 315.751,204.669 315.821,205.362 315.907 " stroke="none" fill="#fa675f" fill-rule="evenodd"></path></g></svg>